# Made in Blockbench 4.12.4
mtllib amogus.mtl

o beveled_cuboid
v 0 0.8593749999999999 0.22265625
v 0 0.8593749999999999 -0.22265625
v 0 0.6515625000000002 -0.3093750000000002
v 0 0.21874999999999997 -0.35937500000000006
v 0 -0.07031249999999997 -0.31562500000000004
v 0 -0.15156250000000002 0.328125
v 0 -0.0765625 0.4781249999999999
v 0 0.3562499999999999 0.5218749999999999
v 0 0.5703124999999999 0.453125
v 0 0.6328124999999998 0.34062499999999996
v 0 -0.1109375 0.006249999999999978
v 0 0.8843749999999998 0
v 0 0.6015625 -0.440625
v 0 0.25625 -0.440625
v 0.06249999999999998 -0.34687499999999993 -0.24140625
v 0.06249999999999998 -0.34687499999999993 0.25390625
v 0.2375000000000001 0.828125 0.17890625
v 0.2312500000000001 0.828125 -0.16015624999999994
v 0.3437500000000001 -0.34687499999999993 0.17265624999999996
v 0.3437500000000001 -0.34687499999999993 -0.21640624999999994
v 0.375 -0.0390625 0.22265625
v 0.375 0.5390625 0.19765624999999998
v 0.375 -0.0390625 -0.17890624999999996
v 0.375 0.47031250000000024 -0.14140624999999998
v 0.28125 -0.0390625 -0.296875
v 0.28125 0.5890624999999998 -0.296875
v 0.28125 -0.12031250000000004 0.296875
v 0.28125 0.6015624999999999 0.34062499999999996
v 0.26875000000000004 -0.007812500000000003 0.453125
v 0.28125 0.5390625 0.453125
v 0.29374999999999996 0.3562499999999999 0.49687499999999996
v 0.28125 0.2812499999999999 -0.296875
v 0.38749999999999996 0.29374999999999984 -0.21015625
v 0.38749999999999996 0.19374999999999998 0.18515624999999997
v 0.29374999999999996 0.25625 0.3374999999999999
v 0.35625000000000007 -0.34687499999999993 0.04062500000000002
v 0.06249999999999998 -0.34687499999999993 0.0062500000000000056
v 0.24687500000000012 0.840625 0.03437500000000002
v 0.38749999999999996 0.5046875000000002 0.053125000000000006
v 0.4062499999999999 0.2437499999999999 -0.018750000000000017
v 0.4062499999999999 -0.0390625 0.021875000000000033
v 0.219808153613666 0.3089139344262294 -0.37663669126149696
v 0.23230815361366605 0.5682838114754097 -0.37663669126149696
v -0.06249999999999998 -0.34687499999999993 -0.24140625
v -0.06249999999999998 -0.34687499999999993 0.25390625
v -0.2375000000000001 0.828125 0.17890625
v -0.2312500000000001 0.828125 -0.16015624999999994
v -0.3437500000000001 -0.34687499999999993 0.17265624999999996
v -0.3437500000000001 -0.34687499999999993 -0.21640624999999994
v -0.375 -0.0390625 0.22265625
v -0.375 0.5390625 0.19765624999999998
v -0.375 -0.0390625 -0.17890624999999996
v -0.375 0.47031250000000024 -0.14140624999999998
v -0.28125 -0.0390625 -0.296875
v -0.28125 0.5890624999999998 -0.296875
v -0.28125 -0.12031250000000004 0.296875
v -0.28125 0.6015624999999999 0.34062499999999996
v -0.26875000000000004 -0.007812500000000003 0.453125
v -0.28125 0.5390625 0.453125
v -0.29374999999999996 0.3562499999999999 0.49687499999999996
v -0.28125 0.2812499999999999 -0.296875
v -0.38749999999999996 0.29374999999999984 -0.21015625
v -0.38749999999999996 0.19374999999999998 0.18515624999999997
v -0.29374999999999996 0.25625 0.3374999999999999
v -0.35625000000000007 -0.34687499999999993 0.04062500000000002
v -0.06249999999999998 -0.34687499999999993 0.0062500000000000056
v -0.24687500000000012 0.840625 0.03437500000000002
v -0.38749999999999996 0.5046875000000002 0.053125000000000006
v -0.4062499999999999 0.2437499999999999 -0.018750000000000017
v -0.4062499999999999 -0.0390625 0.021875000000000033
v -0.219808153613666 0.3089139344262294 -0.37663669126149696
v -0.23230815361366605 0.5682838114754097 -0.37663669126149696
vt 0.75 0.25
vt 0.75 0.625
vt 0.375 0.625
vt 0.375 0.25
vt 0.375 1
vt 0.375 0.625
vt 0.75 0.625
vt 0.75 1
vt 0.75 0.875
vt 0.375 0.875
vt 0.375 0.75
vt 0.75 0.75
vt 0 0.75
vt 0.375 0.75
vt 0.375 0.875
vt 0 0.875
vt 0.75 1
vt 0.375 1
vt 0.375 0.823225
vt 0.75 0.823225
vt 0 0.823225
vt 0.375 0.823225
vt 0.375 1
vt 0 1
vt 0.75 1
vt 0.375 1
vt 0.375 0.82321875
vt 0.75 0.82321875
vt 0 0.82321875
vt 0.375 0.82321875
vt 0.375 1
vt 0 1
vt 0.5625 1
vt 0.28125 1
vt 0.28125 0.9375
vt 0.5625 0.9375
vt 0.5625 0.9375
vt 0.28125 0.9375
vt 0.28125 0.875
vt 0.5625 0.875
vt 0.75 1
vt 0.375 1
vt 0.375 0.875
vt 0.75 0.875
vt 0 0.875
vt 0.375 0.875
vt 0.375 1
vt 0 1
vt 0 0.75
vt 0.375 0.75
vt 0 1
vt 0 1
vt 0 0.823225
vt 0.375 0.823225
vt 0.375 1
vt 0 1
vt 0 0.82321875
vt 0.375 0.82321875
vt 0.375 1
vt 0 1
vt 0 1
vt 0 1
vt 0 0.75
vt 0.176775 0.75
vt 0 1
vt 0 1
vt 0 0.75
vt 0.176775 0.75
vt 0.0883875 0.84690625
vt 0.176775 1
vt 0 1
vt 0.0883875 0.84690625
vt 0.176775 1
vt 0 1
vt 0.0883875 1
vt 0 0.84690625
vt 0.176775 0.84690625
vt 0.0883875 1
vt 0 0.84690625
vt 0.176775 0.84690625
vt 0 1
vt 0 1
vt 0.3125 0.421875
vt 0.375 0.421875
vt 0 0.875
vt 0.176775 0.875
vt 0.176775 1
vt 0 1
vt 0 0.875
vt 0.375 0.875
vt 0.375 1
vt 0 1
vt 0 0.875
vt 0.176775 0.875
vt 0.176775 1
vt 0 1
vt 0.3125 0.7109375
vt 0.375 0.7109375
vt 0.375 1
vt 0.3125 1
vt 0.6027783206686421 0.759840756120123
vt 0.30138916033432106 0.8799203780600615
vt 0.2392262933744747 0.6440693355137955
vt 0.4784525867489494 0.5806590664837242
vt 0.75 0.25
vt 0.75 0.625
vt 0.375 0.625
vt 0.375 0.25
vt 0 0.7074796045438668
vt 0.2392262933744747 0.6440693355137955
vt 0.30138916033432106 0.8799203780600615
vt 5.551115123125783e-17 1
vt 0.375 1
vt 0.375 0.625
vt 0.75 0.625
vt 0.75 1
vt 0.75 1
vt 0.375 1
vt 0.375 0.823225
vt 0.75 0.823225
vt 0.75 1
vt 0.375 1
vt 0.375 0.875
vt 0.75 0.875
vt 0 1
vt 0 1
vt 0.375 0.75
vt 0.75 0.75
vt 0.75 1
vt 0.375 1
vt 0.375 0.82321875
vt 0.75 0.82321875
vt 0.12351249999999803 0.691925
vt 0.12499999999999806 1
vt 0.06249999999999806 1
vt 0.06249999999999806 0.7052
vt 0 0.9376689335800982
vt 0.31983491621899646 0.9376689335800978
vt 0.30733090697173326 0.9989053586287922
vt 0.0002919405252601731 1
vt 0.0625 0.6921875
vt 0.0625 1
vt 0 1
vt 0 0.6921875
vt 0 1
vt 0 1
vt 0.75 0.25
vt 0.375 0.25
vt 0 1
vt 0 1
vt 0.375 1
vt 0.75 1
vt 0.375 0.75
vt 0.375 0.875
vt 0.75 0.875
vt 0.75 0.75
vt 0.375 0.875
vt 0.375 0.75
vt 0 0.75
vt 0 0.875
vt 0.375 0.823225
vt 0.375 1
vt 0.75 1
vt 0.75 0.823225
vt 0.375 1
vt 0.375 0.823225
vt 0 0.823225
vt 0 1
vt 0.375 0.82321875
vt 0.375 1
vt 0.75 1
vt 0.75 0.82321875
vt 0.375 1
vt 0.375 0.82321875
vt 0 0.82321875
vt 0 1
vt 0.28125 0.9375
vt 0.28125 1
vt 0.5625 1
vt 0.5625 0.9375
vt 0.28125 0.875
vt 0.28125 0.9375
vt 0.5625 0.9375
vt 0.5625 0.875
vt 0.375 0.875
vt 0.375 1
vt 0.75 1
vt 0.75 0.875
vt 0 1
vt 0 1
vt 0 1
vt 0 1
vt 0 1
vt 0 1
vt 0 0.75
vt 0 0.875
vt 0 1
vt 0 1
vt 0 0.823225
vt 0 1
vt 0 1
vt 0 1
vt 0 0.82321875
vt 0 1
vt 0 0.75
vt 0 0.875
vt 0.176775 0.875
vt 0.176775 0.75
vt 0 0.75
vt 0 0.875
vt 0.176775 0.875
vt 0.176775 0.75
vt 0.176775 1
vt 0.0883875 0.84690625
vt 0 1
vt 0.176775 1
vt 0.0883875 0.84690625
vt 0 1
vt 0 0.84690625
vt 0.0883875 1
vt 0.176775 0.84690625
vt 0 0.84690625
vt 0.0883875 1
vt 0.176775 0.84690625
vt 0.3125 0.421875
vt 0.3125 0.7109375
vt 0.375 0.7109375
vt 0.375 0.421875
vt 0.176775 1
vt 0.176775 0.875
vt 0 0.875
vt 0 1
vt 0 1
vt 0 1
vt 0 0.875
vt 0 1
vt 0.176775 1
vt 0.176775 0.875
vt 0 0.875
vt 0 1
vt 0.375 1
vt 0.375 0.7109375
vt 0.3125 0.7109375
vt 0.3125 1
vt 0 1
vt 0 1
vt 0.6027783206686421 0.759840756120123
vt 0.4784525867489494 0.5806590664837242
vt 0.375 0.625
vt 0.75 0.625
vt 0.75 0.25
vt 0.375 0.25
vt 0.30138916033432106 0.8799203780600615
vt 0.2392262933744747 0.6440693355137955
vt 0 0.7074796045438668
vt 5.551115123125783e-17 1
vt 0.75 0.625
vt 0.375 0.625
vt 0.375 1
vt 0.75 1
vt 0.375 0.823225
vt 0.375 1
vt 0.75 1
vt 0.75 0.823225
vt 0.375 0.875
vt 0.375 1
vt 0.75 1
vt 0.75 0.875
vt 0.375 0.75
vt 0 1
vt 0 1
vt 0.75 0.75
vt 0.375 0.82321875
vt 0.375 1
vt 0.75 1
vt 0.75 0.82321875
vt 0.06249999999999806 1
vt 0.12499999999999806 1
vt 0.12351249999999803 0.691925
vt 0.06249999999999806 0.7052
vt 0.30733090697173326 0.9989053586287922
vt 0.31983491621899646 0.9376689335800978
vt 0 0.9376689335800982
vt 0.0002919405252601731 1
vt 0 1
vt 0.0625 1
vt 0.0625 0.6921875
vt 0 0.6921875
vn 0.16080758487023927 0.9823651425358029 0.0953920718865712
vn 0 -1 0
vn 0.08437295781329103 -0.10021192462300657 0.9913822543061731
vn 0.08226364356394578 -0.14913984300801658 -0.9853882484458237
vn 0.21872841317267402 0.45065121536258673 0.8654890891069555
vn 0.12559365651218976 0.3820586566859826 -0.9155639880943336
vn 0.13913383007157423 -0.31254700958107273 0.9396574610630958
vn 0.08595056698179061 -0.2400667319300718 -0.9669438785451429
vn 0.09667364890456609 0.8700628401410979 0.4833682445228311
vn 0.2610331253133126 -0.8634172606517266 0.43170863032586365
vn 0.033956430106238555 0.3056078709561481 0.9515517800225537
vn 0.2795072138710791 0 -0.9601435920704917
vn 0.9878624641433764 0.02208605375903669 0.15375291270713975
vn 0.9226121091675006 0.38554532274518116 -0.01190378623842123
vn 0.983655324609548 -0.15410885691176476 0.0931271313239806
vn 0.6361385717984998 -0.09578049355460447 -0.7656068276371374
vn 0.8321798468129583 -0.0867104905506988 0.5476842095467228
vn 0.7028212318841569 -0.18301473805811633 0.6874212112426814
vn 0.7828826927488027 -0.003684525397008971 -0.6221584313235516
vn 0.8323086056689656 0.41941755501526135 0.3624241982462023
vn 0.896637271408079 0.34572604965166703 -0.2766136332759612
vn 0.9961782303628054 -0.07398575006608232 0.04642243141401239
vn 0.6323067231910644 0 -0.7747181473331954
vn 0.9938400005397201 0.043315370851573 0.10200897987530218
vn 0.8537983290103976 0.012066399656253274 0.5204640385063974
vn 0.9990776875118295 0.03637224025205899 -0.02282179780521346
vn -0.9661541740128347 -0.25593488053320124 -0.03230246064982153
vn 0 -1 0
vn -0.9666586351177289 -0.2560685126139679 0
vn 0.1882196857370961 0.975994063650561 -0.10958529837479944
vn 0.9199171968299896 0.37959618541368134 -0.09828065422979401
vn 0.9923851567809406 0.09342102489578112 -0.08027585383096127
vn 0.9947552657253912 -0.014543410084408593 -0.10124450866453655
vn 0.974148185758337 -0.16747290700666684 -0.15161839467055774
vn 0.34053117561660984 -0.7756947032530923 -0.5313532212928298
vn 0.2259283168948637 0.9103255542899821 -0.3467906873485661
vn 0.8563668801959158 -0.04127150818064826 -0.5147158722207902
vn -0.16080758487023922 0.9823651425358029 0.09539207188657117
vn 0 -1 0
vn -0.08437295781329102 -0.10021192462300657 0.9913822543061731
vn -0.08226364356394579 -0.14913984300801664 -0.9853882484458237
vn -0.21872841317267402 0.4506512153625868 0.8654890891069555
vn -0.12559365651218973 0.3820586566859826 -0.9155639880943336
vn -0.1391338300715743 -0.31254700958107284 0.9396574610630958
vn -0.0859505669817906 -0.24006673193007178 -0.9669438785451429
vn -0.09667364890456608 0.8700628401410977 0.483368244522831
vn -0.2610331253133126 -0.8634172606517264 0.4317086303258636
vn -0.03395643010623857 0.3056078709561481 0.9515517800225538
vn -0.279507213871079 0 -0.9601435920704917
vn -0.9878624641433765 0.022086053759036692 0.1537529127071398
vn -0.9226121091675006 0.38554532274518116 -0.01190378623842132
vn -0.983655324609548 -0.15410885691176482 0.09312713132398057
vn -0.6361385717984998 -0.0957804935546045 -0.7656068276371376
vn -0.8321798468129583 -0.08671049055069877 0.5476842095467227
vn -0.702821231884157 -0.18301473805811633 0.6874212112426814
vn -0.7828826927488027 -0.0036845253970089805 -0.6221584313235516
vn -0.8323086056689656 0.41941755501526135 0.3624241982462023
vn -0.896637271408079 0.345726049651667 -0.2766136332759613
vn -0.9961782303628054 -0.07398575006608232 0.04642243141401239
vn -0.6323067231910644 0 -0.7747181473331957
vn -0.9938400005397201 0.043315370851573 0.10200897987530218
vn -0.8537983290103976 0.012066399656253272 0.5204640385063974
vn -0.9990776875118295 0.03637224025205899 -0.02282179780521346
vn 0.9661541740128347 -0.25593488053320124 -0.032302460649821514
vn 0 -1 0
vn 0.9666586351177289 -0.2560685126139679 0
vn -0.18821968573709608 0.9759940636505609 -0.10958529837479943
vn -0.9199171968299896 0.37959618541368134 -0.09828065422979401
vn -0.9923851567809406 0.09342102489578114 -0.08027585383096128
vn -0.9947552657253912 -0.014543410084408587 -0.10124450866453656
vn -0.974148185758337 -0.16747290700666687 -0.15161839467055774
vn -0.34053117561660984 -0.7756947032530922 -0.5313532212928297
vn -0.2259283168948637 0.9103255542899821 -0.34679068734856616
vn -0.8563668801959159 -0.041271508180648266 -0.5147158722207903
usemtl none
f 17/1/1 38/2/1 12/3/1 1/4/1
f 16/5/2 37/6/2 36/7/2 19/8/2
f 31/9/3 8/10/3 7/11/3 29/12/3
f 25/13/4 5/14/4 4/15/4 32/16/4
f 17/17/5 1/18/5 10/19/5 28/20/5
f 26/21/6 3/22/6 2/23/6 18/24/6
f 27/25/7 6/26/7 16/27/7 19/28/7
f 20/29/8 15/30/8 5/31/8 25/32/8
f 28/33/9 10/34/9 9/35/9 30/36/9
f 29/37/10 7/38/10 6/39/10 27/40/10
f 30/41/11 9/42/11 8/43/11 31/44/11
f 42/45/12 14/46/12 13/47/12 43/48/12
f 21/49/13 41/50/13 40/51/13 34/52/13
f 22/53/14 39/54/14 38/55/14 17/56/14
f 19/57/15 36/58/15 41/59/15 21/60/15
f 32/61/16 33/62/16 23/63/16 25/64/16
f 34/65/17 35/66/17 27/67/17 21/68/17
f 19/69/18 21/70/18 27/71/18
f 20/72/19 25/73/19 23/74/19
f 17/75/20 28/76/20 22/77/20
f 18/78/21 24/79/21 26/80/21
f 35/81/22 31/82/22 29/83/22 27/84/22
f 33/85/23 32/86/23 26/87/23 24/88/23
f 34/89/24 40/90/24 39/91/24 22/92/24
f 35/93/25 34/94/25 22/95/25 28/96/25
f 31/97/26 35/98/26 28/99/26 30/100/26
f 6/101/27 11/102/27 37/103/27 16/104/27
f 20/105/28 36/106/28 37/107/28 15/108/28
f 15/109/29 37/110/29 11/111/29 5/112/29
f 2/113/30 12/114/30 38/115/30 18/116/30
f 18/117/31 38/118/31 39/119/31 24/120/31
f 24/121/32 39/122/32 40/123/32 33/124/32
f 33/125/33 40/126/33 41/127/33 23/128/33
f 23/129/34 41/130/34 36/131/34 20/132/34
f 14/133/35 42/134/35 32/135/35 4/136/35
f 43/137/36 13/138/36 3/139/36 26/140/36
f 42/141/37 43/142/37 26/143/37 32/144/37
f 12/145/38 67/146/38 46/147/38 1/148/38
f 65/149/39 66/150/39 45/151/39 48/152/39
f 7/153/40 8/154/40 60/155/40 58/156/40
f 4/157/41 5/158/41 54/159/41 61/160/41
f 10/161/42 1/162/42 46/163/42 57/164/42
f 2/165/43 3/166/43 55/167/43 47/168/43
f 45/169/44 6/170/44 56/171/44 48/172/44
f 5/173/45 44/174/45 49/175/45 54/176/45
f 9/177/46 10/178/46 57/179/46 59/180/46
f 6/181/47 7/182/47 58/183/47 56/184/47
f 8/185/48 9/186/48 59/187/48 60/188/48
f 13/189/49 14/190/49 71/191/49 72/192/49
f 69/193/50 70/194/50 50/195/50 63/196/50
f 67/197/51 68/198/51 51/199/51 46/200/51
f 70/201/52 65/202/52 48/203/52 50/204/52
f 52/205/53 62/206/53 61/207/53 54/208/53
f 56/209/54 64/210/54 63/211/54 50/212/54
f 50/213/55 48/214/55 56/215/55
f 54/216/56 49/217/56 52/218/56
f 57/219/57 46/220/57 51/221/57
f 53/222/58 47/223/58 55/224/58
f 58/225/59 60/226/59 64/227/59 56/228/59
f 55/229/60 61/230/60 62/231/60 53/232/60
f 68/233/61 69/234/61 63/235/61 51/236/61
f 51/237/62 63/238/62 64/239/62 57/240/62
f 57/241/63 64/242/63 60/243/63 59/244/63
f 66/245/64 11/246/64 6/247/64 45/248/64
f 66/249/65 65/250/65 49/251/65 44/252/65
f 11/253/66 66/254/66 44/255/66 5/256/66
f 67/257/67 12/258/67 2/259/67 47/260/67
f 68/261/68 67/262/68 47/263/68 53/264/68
f 69/265/69 68/266/69 53/267/69 62/268/69
f 70/269/70 69/270/70 62/271/70 52/272/70
f 65/273/71 70/274/71 52/275/71 49/276/71
f 61/277/72 71/278/72 14/279/72 4/280/72
f 3/281/73 13/282/73 72/283/73 55/284/73
f 55/285/74 72/286/74 71/287/74 61/288/74