# Made in Blockbench 4.12.4
mtllib blob.mtl

o sphere
v 0 0.84375 0
v 0.2198609156843925 0.412262129857035 0.21986091568439248
v 0.40625000000000006 2.487563810768061e-17 0.16827425971406984
v 0.3109302887966354 -0.2872621298570349 -2.7755575615628914e-17
v 0.3109302887966354 0.412262129857035 1.3877787807814457e-16
v 0.4062500000000001 2.487563810768061e-17 -0.16827425971406967
v 0.21986091568439264 -0.2872621298570349 -0.21986091568439242
v 0 0.84375 0
v 0.31093028879663537 0.412262129857035 -2.7755575615628914e-17
v 0.40625000000000006 2.487563810768061e-17 -0.1682742597140699
v 0.2198609156843925 -0.2872621298570349 -0.21986091568439256
v 0.21986091568439262 0.412262129857035 -0.21986091568439245
v 0.16827425971407 2.487563810768061e-17 -0.4062499999999999
v 1.3877787807814457e-16 -0.2872621298570349 -0.3109302887966354
v 0 0.84375 0
v -0.21986091568439248 0.412262129857035 0.21986091568439242
v -0.16827425971406992 2.487563810768061e-17 0.40625
v -2.7755575615628914e-17 -0.2872621298570349 0.3109302887966354
v -1.942890293094024e-16 0.412262129857035 0.3109302887966354
v 0.1682742597140696 2.487563810768061e-17 0.4062500000000001
v 0.2198609156843924 -0.2872621298570349 0.21986091568439267
v 0 0.84375 0
v 0 0.412262129857035 0.31093028879663537
v 0.16827425971406984 2.487563810768061e-17 0.4062500000000001
v 0.21986091568439253 -0.2872621298570349 0.21986091568439253
v 0.2198609156843924 0.412262129857035 0.21986091568439267
v 0.40624999999999983 2.487563810768061e-17 0.16827425971407003
v 0.3109302887966354 -0.2872621298570349 1.942890293094024e-16
v 0 0.84375 0
v -0.21986091568439253 0.412262129857035 -0.21986091568439253
v -0.40625 2.487563810768061e-17 -0.1682742597140699
v -0.3109302887966354 -0.2872621298570349 0
v -0.3109302887966354 0.412262129857035 -1.6653345369377348e-16
v -0.4062500000000001 2.487563810768061e-17 0.16827425971406962
v -0.21986091568439267 -0.2872621298570349 0.2198609156843924
v 0 0.84375 0
v -0.3109302887966353 0.412262129857035 0
v -0.40625000000000006 2.487563810768061e-17 0.16827425971406995
v -0.21986091568439253 -0.2872621298570349 0.21986091568439253
v -0.21986091568439264 0.412262129857035 0.21986091568439242
v -0.16827425971407006 2.487563810768061e-17 0.40625
v -1.6653345369377348e-16 -0.2872621298570349 0.3109302887966354
v 0 0.84375 0
v 0.2198609156843925 0.412262129857035 -0.2198609156843924
v 0.16827425971407 2.487563810768061e-17 -0.40625
v 2.7755575615628914e-17 -0.2872621298570349 -0.3109302887966355
v 2.220446049250313e-16 0.412262129857035 -0.3109302887966355
v -0.16827425971406954 2.487563810768061e-17 -0.40625000000000017
v -0.21986091568439245 -0.2872621298570349 -0.2198609156843927
v 0 0.84375 0
v 2.7755575615628914e-17 0.412262129857035 -0.3109302887966353
v -0.1682742597140698 2.487563810768061e-17 -0.4062500000000001
v -0.2198609156843925 -0.2872621298570349 -0.21986091568439256
v -0.21986091568439245 0.412262129857035 -0.2198609156843927
v -0.4062499999999999 2.487563810768061e-17 -0.16827425971407003
v -0.3109302887966355 -0.2872621298570349 -2.220446049250313e-16
v -2.7755575615628914e-17 -0.3497621298570349 0.13147256803607416
v -8.326672684688674e-17 -0.2872621298570349 0.3109302887966354
v 0.13147256803607416 -0.3497621298570349 1.3877787807814457e-17
v 0.3109302887966354 -0.2872621298570349 8.326672684688674e-17
v 1.3877787807814457e-17 -0.3497621298570349 -0.1314725680360742
v 8.326672684688674e-17 -0.2872621298570349 -0.3109302887966354
v -0.13147256803607418 -0.3497621298570349 -8.326672684688674e-17
v -0.3109302887966355 -0.2872621298570349 -1.1102230246251565e-16
vt 0 0.689075
vt 0.237975 0.689075
vt 0.1189875 1
vt 0.04928750000000001 1
vt 0 0.689075
vt 0.2872625 1
vt 0 0.689075
vt 0.33655 0.689075
vt 0.2872625 1
vt 0.237975 0.6747875
vt 0.1189875 1
vt 0 0.6747875
vt 0.33655 1
vt 0.168275 0.6973374999999999
vt 0 1
vt 0 0.689075
vt 0.237975 0.689075
vt 0.1189875 1
vt 0.04928750000000001 1
vt 0 0.689075
vt 0.2872625 1
vt 0 0.689075
vt 0.33655 0.689075
vt 0.2872625 1
vt 0.237975 0.6747875
vt 0.1189875 1
vt 0 0.6747875
vt 0.33655 1
vt 0.168275 0.6973374999999999
vt 0 1
vt 0 0.689075
vt 0.237975 0.689075
vt 0.1189875 1
vt 0.04928750000000001 1
vt 0 0.689075
vt 0.2872625 1
vt 0 0.689075
vt 0.33655 0.689075
vt 0.2872625 1
vt 0.237975 0.6747875
vt 0.1189875 1
vt 0 0.6747875
vt 0.33655 1
vt 0.168275 0.6973374999999999
vt 0 1
vt 0 0.689075
vt 0.237975 0.689075
vt 0.1189875 1
vt 0.04928750000000001 1
vt 0 0.689075
vt 0.2872625 1
vt 0 0.689075
vt 0.33655 0.689075
vt 0.2872625 1
vt 0.237975 0.6747875
vt 0.1189875 1
vt 0 0.6747875
vt 0.33655 1
vt 0.168275 0.6973374999999999
vt 0 1
vt 0 0.689075
vt 0.237975 0.689075
vt 0.1189875 1
vt 0.04928750000000001 1
vt 0 0.689075
vt 0.2872625 1
vt 0 0.689075
vt 0.33655 0.689075
vt 0.2872625 1
vt 0.237975 0.6747875
vt 0.1189875 1
vt 0 0.6747875
vt 0.33655 1
vt 0.168275 0.6973374999999999
vt 0 1
vt 0 0.689075
vt 0.237975 0.689075
vt 0.1189875 1
vt 0.04928750000000001 1
vt 0 0.689075
vt 0.2872625 1
vt 0 0.689075
vt 0.33655 0.689075
vt 0.2872625 1
vt 0.237975 0.6747875
vt 0.1189875 1
vt 0 0.6747875
vt 0.33655 1
vt 0.168275 0.6973374999999999
vt 0 1
vt 0 0.689075
vt 0.237975 0.689075
vt 0.1189875 1
vt 0.04928750000000001 1
vt 0 0.689075
vt 0.2872625 1
vt 0 0.689075
vt 0.33655 0.689075
vt 0.2872625 1
vt 0.237975 0.6747875
vt 0.1189875 1
vt 0 0.6747875
vt 0.33655 1
vt 0.168275 0.6973374999999999
vt 0 1
vt 0 0.689075
vt 0.237975 0.689075
vt 0.1189875 1
vt 0.04928750000000001 1
vt 0 0.689075
vt 0.2872625 1
vt 0 0.689075
vt 0.33655 0.689075
vt 0.2872625 1
vt 0.237975 0.6747875
vt 0.1189875 1
vt 0 0.6747875
vt 0.33655 1
vt 0.168275 0.6973374999999999
vt 0 1
vt 0.09106875 0.7801375
vt 0.09106875 0.7801375
vt 0.155465625 0.8445343750000001
vt 0 1
vt 0.2198625 0.90893125
vt 0.2198625 0.90893125
vt 0.155465625 0.8445343750000001
vt 0.31093125 0.68906875
vt 0.2198625 0.7801375
vt 0.2198625 0.7801375
vt 0.155465625 0.8445343750000001
vt 0 0.68906875
vt 0.09106875 0.90893125
vt 0.09106875 0.90893125
vt 0.155465625 0.8445343750000001
vt 0.31093125 1
vt 0.31093125 1
vt 0.155465625 0.8445343750000001
vt 0.2198625 0.7801375
vt 0.2198625 0.7801375
vt 0.31093125 0.68906875
vt 0.155465625 0.8445343750000001
vt 0.09106875 0.7801375
vt 0.09106875 0.7801375
vt 0 0.68906875
vt 0.155465625 0.8445343750000001
vt 0.09106875 0.90893125
vt 0.09106875 0.90893125
vt 0 1
vt 0.155465625 0.8445343750000001
vt 0.2198625 0.90893125
vt 0.2198625 0.90893125
vt 0.0929625 1
vt 0.0929625 1
vt 0 0.77325
vt 0.185925 0.77325
vt 0.0929625 1
vt 0.0929625 1
vt 0 0.77325
vt 0.185925 0.77325
vt 0.0929625 1
vt 0.0929625 1
vt 0 0.77325
vt 0.185925 0.77325
vt 0.01926875 1
vt 0.01926875 1
vt 0 0.75569375
vt 0.1763875 0.81253125
vt 0 0.814075
vt 0.185925 0.814075
vt 0.185925 1
vt 0 1
vn 0.769040201010254 0.5541705997832891 0.3185468812685786
vn 0.8665242167124139 0.34685421868257416 0.35892608268700515
vn 0.9742967165726604 0.22526852437864686 1.1102230246251563e-16
vn 0.8160670289147007 -0.4687995377148832 -0.33802603118198554
vn 0.9491129283519435 -0.314935944654145 5.551115123125783e-17
vn 0.7690402010102544 0.554170599783289 -0.3185468812685782
vn 0.8665242167124141 0.3468542186825741 -0.35892608268700443
vn 0.688931815176316 0.22526852437864686 -0.688931815176316
vn 0.33802603118198593 -0.46879953771488314 -0.8160670289147007
vn 0.6711241877494811 -0.3149359446541449 -0.6711241877494811
vn -0.3185468812685791 0.554170599783289 0.7690402010102538
vn -0.3589260826870055 0.3468542186825741 0.8665242167124136
vn -2.775557561562892e-16 0.2252685243786469 0.9742967165726606
vn 0.3380260311819855 -0.46879953771488325 0.8160670289147008
vn -2.7755575615628914e-16 -0.3149359446541449 0.9491129283519436
vn 0.31854688126857805 0.5541705997832891 0.7690402010102544
vn 0.35892608268700427 0.34685421868257416 0.8665242167124142
vn 0.6889318151763161 0.22526852437864683 0.6889318151763159
vn 0.8160670289147007 -0.46879953771488303 0.3380260311819861
vn 0.6711241877494812 -0.3149359446541448 0.671124187749481
vn -0.7690402010102539 0.5541705997832891 -0.31854688126857866
vn -0.866524216712414 0.34685421868257404 -0.3589260826870051
vn -0.9742967165726606 0.2252685243786469 -5.551115123125784e-17
vn -0.816067028914701 -0.46879953771488314 0.3380260311819856
vn -0.9491129283519435 -0.31493594465414476 -1.6653345369377343e-16
vn -0.7690402010102544 0.5541705997832891 0.31854688126857805
vn -0.8665242167124142 0.34685421868257416 0.35892608268700427
vn -0.688931815176316 0.22526852437864703 0.688931815176316
vn -0.338026031181986 -0.4687995377148833 0.8160670289147007
vn -0.671124187749481 -0.31493594465414504 0.671124187749481
vn 0.3185468812685793 0.554170599783289 -0.7690402010102539
vn 0.35892608268700565 0.34685421868257416 -0.8665242167124136
vn 4.996003610813205e-16 0.22526852437864692 -0.9742967165726606
vn -0.33802603118198526 -0.46879953771488325 -0.816067028914701
vn 4.440892098500626e-16 -0.314935944654145 -0.9491129283519435
vn -0.31854688126857766 0.554170599783289 -0.7690402010102544
vn -0.35892608268700404 0.34685421868257416 -0.8665242167124143
vn -0.688931815176316 0.22526852437864672 -0.688931815176316
vn -0.8160670289147006 -0.46879953771488314 -0.33802603118198626
vn -0.6711241877494811 -0.3149359446541449 -0.6711241877494811
vn 0.32889578985016094 -0.9443662210280708 -5.551115123125783e-17
vn -0.3288957898501608 -0.9443662210280707 5.551115123125783e-17
vn 5.551115123125783e-17 -0.9443662210280708 0.32889578985016094
vn 0.10897896827085732 -0.938741628322828 -0.3269369048125721
vn -0.13498622005498262 -0.9357228863822142 0.325885563190218
vn 0.325885563190218 -0.9357228863822142 0.13498622005498262
vn 0.13498622005498262 -0.9357228863822142 -0.325885563190218
vn -0.325885563190218 -0.9357228863822142 -0.1349862200549827
vn -0.19490360437413812 -0.9612622795074915 0.19490360437413817
vn 0.19490360437413823 -0.9612622795074915 0.19490360437413817
vn 0.19490360437413817 -0.9612622795074915 -0.19490360437413823
vn -0.2288166385133109 -0.9667231674188513 -0.11440831925665541
vn 0 -1 0
usemtl none
f 2/1/1 5/2/1 1/3/1
f 2/4/2 3/5/2 5/6/2
f 3/7/3 6/8/3 5/9/3
f 7/10/4 6/11/4 4/12/4
f 3/13/5 4/14/5 6/15/5
f 9/16/6 12/17/6 8/18/6
f 9/19/7 10/20/7 12/21/7
f 10/22/8 13/23/8 12/24/8
f 14/25/9 13/26/9 11/27/9
f 10/28/10 11/29/10 13/30/10
f 16/31/11 19/32/11 15/33/11
f 16/34/12 17/35/12 19/36/12
f 17/37/13 20/38/13 19/39/13
f 21/40/14 20/41/14 18/42/14
f 17/43/15 18/44/15 20/45/15
f 23/46/16 26/47/16 22/48/16
f 23/49/17 24/50/17 26/51/17
f 24/52/18 27/53/18 26/54/18
f 28/55/19 27/56/19 25/57/19
f 24/58/20 25/59/20 27/60/20
f 30/61/21 33/62/21 29/63/21
f 30/64/22 31/65/22 33/66/22
f 31/67/23 34/68/23 33/69/23
f 35/70/24 34/71/24 32/72/24
f 31/73/25 32/74/25 34/75/25
f 37/76/26 40/77/26 36/78/26
f 37/79/27 38/80/27 40/81/27
f 38/82/28 41/83/28 40/84/28
f 42/85/29 41/86/29 39/87/29
f 38/88/30 39/89/30 41/90/30
f 44/91/31 47/92/31 43/93/31
f 44/94/32 45/95/32 47/96/32
f 45/97/33 48/98/33 47/99/33
f 49/100/34 48/101/34 46/102/34
f 45/103/35 46/104/35 48/105/35
f 51/106/36 54/107/36 50/108/36
f 51/109/37 52/110/37 54/111/37
f 52/112/38 55/113/38 54/114/38
f 56/115/39 55/116/39 53/117/39
f 52/118/40 53/119/40 55/120/40
f 4/121/41 60/122/41 59/123/41 7/124/41
f 32/125/42 64/126/42 63/127/42 35/128/42
f 18/129/43 58/130/43 57/131/43 21/132/43
f 46/133/44 62/134/44 61/135/44 49/136/44
f 39/137/45 57/138/45 58/139/45 42/140/45
f 25/141/46 59/142/46 60/143/46 28/144/46
f 11/145/47 61/146/47 62/147/47 14/148/47
f 53/149/48 63/150/48 64/151/48 56/152/48
f 39/153/49 35/154/49 63/155/49 57/156/49
f 25/157/50 21/158/50 57/159/50 59/160/50
f 11/161/51 7/162/51 59/163/51 61/164/51
f 53/165/52 49/166/52 61/167/52 63/168/52
f 59/169/53 57/170/53 63/171/53 61/172/53