# Made in Blockbench 4.12.4
mtllib chip.mtl

o plane
v 0.16875 0.03295454545454547 0.5
v 0.16875 0.03295454545454547 -0.5
v 0.13500000000000004 0.14375000000000004 -0.4625
v 0.13500000000000004 0.14375000000000004 0.4625
v 0.16875 0.03295454545454547 0.40909090909090906
v 0.16875 0.03295454545454547 0.3181818181818181
v 0.16875 0.03295454545454547 0.22727272727272718
v 0.16875 0.03295454545454547 0.13636363636363624
v 0.16875 0.03295454545454547 0.045454545454545414
v 0.16875 0.03295454545454547 -0.04545454545454547
v 0.16875 0.03295454545454547 -0.13636363636363635
v 0.16875 0.03295454545454547 -0.2272727272727273
v 0.16875 0.03295454545454547 -0.3181818181818182
v 0.16875 0.03295454545454547 -0.40909090909090906
v 0.16875 -0.01874999999999999 -0.5
v 0.16875 -0.01874999999999999 -0.40909090909090906
v 0.16875 -0.01874999999999999 -0.3181818181818182
v 0.16875 -0.01874999999999999 -0.2272727272727273
v 0.16875 -0.01874999999999999 -0.13636363636363635
v 0.16875 -0.01874999999999999 -0.04545454545454547
v 0.16875 -0.01874999999999999 0.045454545454545414
v 0.16875 -0.01874999999999999 0.13636363636363624
v 0.16875 -0.01874999999999999 0.22727272727272718
v 0.16875 -0.01874999999999999 0.3181818181818181
v 0.16875 -0.01874999999999999 0.40909090909090906
v 0.16875 -0.01874999999999999 0.5
v -0.16875 0.03295454545454547 0.5
v -0.16875 0.03295454545454547 -0.5
v -0.13500000000000004 0.14375000000000004 -0.4625
v -0.13500000000000004 0.14375000000000004 0.4625
v -0.16875 0.03295454545454547 0.40909090909090906
v -0.16875 0.03295454545454547 0.3181818181818181
v -0.16875 0.03295454545454547 0.22727272727272718
v -0.16875 0.03295454545454547 0.13636363636363624
v -0.16875 0.03295454545454547 0.045454545454545414
v -0.16875 0.03295454545454547 -0.04545454545454547
v -0.16875 0.03295454545454547 -0.13636363636363635
v -0.16875 0.03295454545454547 -0.2272727272727273
v -0.16875 0.03295454545454547 -0.3181818181818182
v -0.16875 0.03295454545454547 -0.40909090909090906
v -0.16875 -0.01874999999999999 -0.5
v -0.16875 -0.01874999999999999 -0.40909090909090906
v -0.16875 -0.01874999999999999 -0.3181818181818182
v -0.16875 -0.01874999999999999 -0.2272727272727273
v -0.16875 -0.01874999999999999 -0.13636363636363635
v -0.16875 -0.01874999999999999 -0.04545454545454547
v -0.16875 -0.01874999999999999 0.045454545454545414
v -0.16875 -0.01874999999999999 0.13636363636363624
v -0.16875 -0.01874999999999999 0.22727272727272718
v -0.16875 -0.01874999999999999 0.3181818181818181
v -0.16875 -0.01874999999999999 0.40909090909090906
v -0.16875 -0.01874999999999999 0.5
vt 0.03375 1
vt 0 0.88920625
vt 0.3375 0.88920625
vt 0.30375 1
vt 0 0.88920625
vt 0.3375 0.88920625
vt 0.30375 1
vt 0.03375 1
vt 0 0.90909375
vt 0 0.90909375
vt 0 1
vt 0 1
vt 0 0.8465937499999979
vt 0 0.937499999999998
vt 0 0.937499999999998
vt 0 0.8465937499999979
vt 0 0.7215937500000029
vt 0 0.8125000000000029
vt 0 0.8125000000000029
vt 0 0.7215937500000029
vt 0 0.6590937500000009
vt 0 0.7500000000000009
vt 0 0.7500000000000009
vt 0 0.6590937500000009
vt 0 0.5340937499999987
vt 0 0.6249999999999988
vt 0 0.6249999999999988
vt 0 0.5340937499999987
vt 0 0.4715937499999967
vt 0 0.5624999999999967
vt 0 0.5624999999999967
vt 0 0.4715937499999967
vt 0 1
vt 1 1
vt 1 0.884175
vt 0 0.884175
vt 0 1
vt 0 0
vt 0.27 0
vt 0.27 1
vt 0 1
vt 0 0.90909375
vt 0 0.90909375
vt 0 1
vt 0 0.937499999999998
vt 0 0.937499999999998
vt 0 0.8465937499999979
vt 0 0.8465937499999979
vt 0 0.8125000000000029
vt 0 0.8125000000000029
vt 0 0.7215937500000029
vt 0 0.7215937500000029
vt 0 0.7500000000000009
vt 0 0.7500000000000009
vt 0 0.6590937500000009
vt 0 0.6590937500000009
vt 0 0.6249999999999988
vt 0 0.6249999999999988
vt 0 0.5340937499999987
vt 0 0.5340937499999987
vt 0 0.5624999999999967
vt 0 0.5624999999999967
vt 0 0.4715937499999967
vt 0 0.4715937499999967
vt 1 0.884175
vt 1 1
vt 0 1
vt 0 0.884175
vn 0 0.320596174316883 -0.9472159695726097
vn 0 0.320596174316883 0.9472159695726097
vn 1 0 0
vn 1 0 0
vn 1 0 0
vn 1 0 0
vn 1 0 0
vn 1 0 0
vn 0.9566025585063151 0.2913958562834618 0
vn 0 1 0
vn -1 0 0
vn -1 0 0
vn -1 0 0
vn -1 0 0
vn -1 0 0
vn -1 0 0
vn -0.9566025585063151 0.2913958562834618 0
usemtl none
f 3/1/1 2/2/1 28/3/1 29/4/1
f 27/5/2 1/6/2 4/7/2 30/8/2
f 14/9/3 16/10/3 15/11/3 2/12/3
f 18/13/4 17/14/4 13/15/4 12/16/4
f 20/17/5 19/18/5 11/19/5 10/20/5
f 22/21/6 21/22/6 9/23/6 8/24/6
f 24/25/7 23/26/7 7/27/7 6/28/7
f 26/29/8 25/30/8 5/31/8 1/32/8
f 3/33/9 4/34/9 1/35/9 2/36/9
f 29/37/10 30/38/10 4/39/10 3/40/10
f 41/41/11 42/42/11 40/43/11 28/44/11
f 39/45/12 43/46/12 44/47/12 38/48/12
f 37/49/13 45/50/13 46/51/13 36/52/13
f 35/53/14 47/54/14 48/55/14 34/56/14
f 33/57/15 49/58/15 50/59/15 32/60/15
f 31/61/16 51/62/16 52/63/16 27/64/16
f 27/65/17 30/66/17 29/67/17 28/68/17