# Made in Blockbench 4.12.4
mtllib crock.mtl

o plane
v 0 0 0.5874999999999998
v 0 0 -0.020853684391235527
v -0.09374999999999992 0 0.5249999999999999
v -0.19250000000000003 0 -0.3687500000000001
v -0.0897 0 -0.49375
v -0.13624999999999995 0.1875 0.056249999999999946
v -0.21874999999999994 0 -0.07499999999999996
v -0.15664192219155829 0 0.16039631560876447
v -0.16749999999999998 0.16875 -0.2187500000000002
v -0.07954375 0.08750000000000002 -0.5140624999999995
v -0.1925 0.10625000000000004 -0.4062499999999998
v -0.06871691105507823 -0.03125 -0.4701803200924757
v -0.1627054824836497 -0.03125 -0.3495155802080827
v -0.1867054824836496 -0.03125 -0.06595344147975908
v -0.12992095420164582 -0.03125 0.16127884006164928
v -0.10099119676936388 -0.03125 0.5132373099653276
v 0.19250000000000003 0 -0.3687500000000001
v 0.0897 0 -0.49375
v 0.13624999999999995 0.1875 0.056249999999999946
v 0.21874999999999994 0 -0.07499999999999996
v 0.15664192219155829 0 0.16039631560876447
v 0.16749999999999998 0.16875 -0.2187500000000002
v 0.07954375 0.08750000000000002 -0.5140624999999995
v 0.1925 0.10625000000000004 -0.4062499999999998
v 0.06871691105507823 -0.03125 -0.4701803200924757
v 0.1627054824836497 -0.03125 -0.3495155802080827
v 0.0006374999999999853 0.20000000000000007 -0.2656249999999999
v 0.1867054824836496 -0.03125 -0.06595344147975908
v 0.12992095420164582 -0.03125 0.16127884006164928
v 0.10099119676936388 -0.03125 0.5132373099653276
v 0.09374999999999992 0 0.5249999999999999
vt 0 1
vt 0.007031250000000001 0.875
vt 0.14736875 0.875
vt 0.1544 1
vt 0.19269375 0.93893125
vt 0.1794 1
vt 0 1
vt 0.013293749999999993 0.93893125
vt 0 0.7442375
vt 0.1590875 0.7442375
vt 0.07890625 1
vt 0 0.65914375
vt 0.2725 0.65914375
vt 0.1368875 1
vt 0.1875 1
vt 0.1875 0.6103937500000001
vt 0.34414374999999997 0.6103937500000001
vt 0.375 1
vt 1 0.5
vt 0.86 0.875
vt 0.86 1
vt 1 0.4686462246753291
vt 0.86 0.5
vt 1 0.5
vt 0.86 0.5
vt 0.86 0.75
vt 1 0.5
vt 0.86 1
vt 0.86 0.875
vt 0.6794 0.875
vt 0.6794 1
vt 0.86 0.75
vt 0.86 0.875
vt 1 0.5
vt 0.31249999999999734 0.8997263402919895
vt 0.439535558678511 1
vt 0.439535558678511 0.9375010718841915
vt 0.31249999999999734 0.8372274121761809
vt 0.43749999999999667 0.7185554231841172
vt 0.5256310114598041 1
vt 0.525631011459804 0.9375010718841915
vt 0.43749999999999667 0.6560564950683088
vt 0.5559550190262331 0.7472734574485027
vt 0.3125000000000021 0.7472734574485025
vt 0.3749455393104876 0.7499999999999974
vt 0.6183945151259198 0.7499984056025436
vt 0.36298751091419446 0.9374986706022017
vt 0 0.8908665589796294
vt 0.06249892811580837 0.8908665589796294
vt 0.4254925460097385 0.9375000000000011
vt 0.34414374999999997 0.6103937500000001
vt 0.1875 0.6103937500000001
vt 0.1875 1
vt 0.375 1
vt 0.86 0.875
vt 1 0.5
vt 0.86 1
vt 0.86 0.5
vt 1 0.4686462246753291
vt 1 0.5
vt 0.86 0.75
vt 0.86 0.5
vt 1 0.5
vt 0.6794 0.875
vt 0.86 0.875
vt 0.86 1
vt 0.6794 1
vt 0.86 0.875
vt 0.86 0.75
vt 1 0.5
vt 0.439535558678511 0.9375010718841915
vt 0.439535558678511 1
vt 0.31249999999999734 0.8997263402919895
vt 0.31249999999999734 0.8372274121761809
vt 0.525631011459804 0.9375010718841915
vt 0.5256310114598041 1
vt 0.43749999999999667 0.7185554231841172
vt 0.43749999999999667 0.6560564950683088
vt 0.3749455393104876 0.7499999999999974
vt 0.3125000000000021 0.7472734574485025
vt 0.5559550190262331 0.7472734574485027
vt 0.6183945151259198 0.7499984056025436
vt 0.06249892811580837 0.8908665589796294
vt 0 0.8908665589796294
vt 0.36298751091419446 0.9374986706022017
vt 0.4254925460097385 0.9375000000000011
vt 0.3668372787784285 1
vt 0.24314947290413605 0.8664758380132893
vt 0 0.9999999999999999
vt 0 1
vt 0.18200182219211436 1
vt 0.03395143849357969 0.8036973740444893
vt 0.14223523237312127 0.732340924635461
vt 0 0.7994394049057076
vt 0.14223523237312127 1
vt 0.24314947290413605 0.8664758380132893
vt 0.3668372787784285 1
vt 0 0.9999999999999999
vt 0.18200182219211436 1
vt 0 1
vt 0.03395143849357969 0.8036973740444893
vt 0 0.7994394049057076
vt 0.14223523237312127 0.732340924635461
vt 0.14223523237312127 1
vt 0 0.9682249999999986
vt 0.125225 0.9999999999999986
vt 0.012550000000000006 0.9999999999999986
vt 0 0.9999999999999986
vt 0.125225 0.9682249999999986
vt 0.112675 0.9999999999999986
vn 0 -0.22612970719934436 -0.9740972002433531
vn 0 -0.602159050257613 -0.7983761508166747
vn 0 0.9109541802219311 -0.412507553308045
vn 0 0.999246775149692 0.0388057000058135
vn 0 1 0
vn -0.9955398927302247 -0.031398755064832515 -0.08896313935036017
vn -0.9387306392687688 0.2396660875136353 0.24767913394946145
vn -0.9321031205356131 0.3528199401359146 0.08186490414250737
vn -0.6907592223249579 -0.24065718409790618 -0.6818620216107405
vn -0.9507653770830566 0.30899874755199347 0.023769134427076625
vn -0.5227234433073992 -0.7489858213769431 -0.4071614436475564
vn -0.6885085556621914 -0.7228832192282648 -0.058273665906167074
vn -0.7492002087646648 -0.6353320454981668 0.18722243228336233
vn -0.9772652490759959 0.19621436964199265 0.0803277915445662
vn 0 1 0
vn 0.9955398927302246 -0.03139875506483248 -0.08896313935036017
vn 0.9387306392687688 0.2396660875136353 0.24767913394946145
vn 0.9321031205356131 0.3528199401359146 0.08186490414250736
vn 0.6907592223249579 -0.2406571840979063 -0.6818620216107404
vn 0.9507653770830569 0.3089987475519934 0.02376913442707664
vn 0.5227234433073992 -0.7489858213769431 -0.4071614436475564
vn 0.6885085556621914 -0.7228832192282648 -0.058273665906167074
vn 0.7492002087646649 -0.6353320454981668 0.18722243228336233
vn 0.9772652490759959 0.19621436964199257 0.0803277915445662
vn -0.19457933655994883 0.979867838577198 -0.04469788256663287
vn -0.24949146267055725 0.9281747721911853 -0.2761260623743212
vn -0.18646626258493776 0.9161972281494974 -0.35470124337078773
vn 0.19596642417788313 0.9795993855072982 -0.04452195535528353
vn 0.2512304125182747 0.9278106621241569 -0.2757728323722828
vn 0.18709389977874719 0.915838579746756 -0.3552964515908163
vn -0.5454784684775343 -0.18158477741556536 0.8182177027163022
vn 0.5454784684775343 -0.18158477741556542 0.8182177027163022
usemtl none
f 5/1/1 10/2/1 23/3/1 18/4/1
f 18/5/2 25/6/2 12/7/2 5/8/2
f 23/9/3 10/10/3 27/11/3
f 6/12/4 19/13/4 27/14/4
f 1/15/5 2/16/5 8/17/5 3/18/5
f 7/19/6 11/20/6 4/21/6
f 8/22/7 6/23/7 7/24/7
f 6/25/8 9/26/8 7/27/8
f 4/28/9 11/29/9 10/30/9 5/31/9
f 9/32/10 11/33/10 7/34/10
f 12/35/11 13/36/11 4/37/11 5/38/11
f 13/39/12 14/40/12 7/41/12 4/42/12
f 14/43/13 15/44/13 8/45/13 7/46/13
f 15/47/14 16/48/14 3/49/14 8/50/14
f 21/51/15 2/52/15 1/53/15 31/54/15
f 24/55/16 20/56/16 17/57/16
f 19/58/17 21/59/17 20/60/17
f 22/61/18 19/62/18 20/63/18
f 23/64/19 24/65/19 17/66/19 18/67/19
f 24/68/20 22/69/20 20/70/20
f 17/71/21 26/72/21 25/73/21 18/74/21
f 20/75/22 28/76/22 26/77/22 17/78/22
f 21/79/23 29/80/23 28/81/23 20/82/23
f 31/83/24 30/84/24 29/85/24 21/86/24
f 27/87/25 9/88/25 6/89/25
f 9/90/26 27/91/26 11/92/26
f 10/93/27 11/94/27 27/95/27
f 22/96/28 27/97/28 19/98/28
f 27/99/29 22/100/29 24/101/29
f 24/102/30 23/103/30 27/104/30
f 16/105/31 1/106/31 3/107/31
f 1/108/32 30/109/32 31/110/32