# Made in Blockbench 4.12.4
mtllib numbers.mtl

o 1
v 0.125 0 0.5
v 0.125 0 -0.5
v 0.125 0 0.25
v 0.125 0 -0.3125
v 0.25 0 -0.3125
v 0.25 0 -0.5
v -0.125 0 0.5
v -0.125 0 -0.5
v -0.125 0 0.25
v -0.125 0 -0.3125
v -0.25 0 -0.3125
v -0.25 0 -0.5
v 0.25 0 0.375
v 0.25 0 0.25
vt 0 1
vt 0 0.833333125
vt 0.5 0.833333125
vt 0.5 1
vt 0.5 0.5
vt 0.5 0.666666875
vt 0 0.666666875
vt 0 0.5
vt 0.5 0.666666875
vt 0.5 0.833333125
vt 0 0.833333125
vt 0 0.666666875
vt 0.25 0.75
vt 0.3125 0.75
vt 0.3125 1
vt 0.25 1
vt 0.3125 1
vt 0.3125 0.75
vt 0.25 0.75
vt 0.25 1
vt 0.25 0.6875
vt 0.3125 0.6875
vt 0.3125 0.9375
vt 0.25 0.9375
vn 0 1 0
vn 0 1 0
vn 0 1 0
vn 0 1 0
vn 0 1 0
vn 0 1 0
usemtl none
f 8/1/1 10/2/1 4/3/1 2/4/1
f 1/5/2 3/6/2 9/7/2 7/8/2
f 3/9/3 4/10/3 10/11/3 9/12/3
f 4/13/4 5/14/4 6/15/4 2/16/4
f 12/17/5 11/18/5 10/19/5 8/20/5
f 1/21/6 13/22/6 14/23/6 3/24/6
o 2
v 0.375 0.0625 0.5
v 0.25 0.0625 -0.5
v -0.25 0.0625 0.5
v -0.375 0.0625 -0.5
v -0.1875 0.0625 0.1
v -0.1875 0.0625 0.3
v 0.1875 0.0625 -0.3
v 0.1875 0.0625 -0.1
v 0.25 0.0625 0.3
v -0.25 0.0625 -0.3
v -0.25 0.0625 -0.1
v 0.25 0.0625 0.1
v -0.375 0.0625 0
v 0.375 0.0625 0
v -0.375 0.0625 -0.4
v 0.375 0.0625 -0.4
v -0.375 0.0625 0.4
v 0.375 0.0625 0.4
vt 0 0.6
vt 0.1875 0.7
vt 0.1875 0.9
vt 0 1
vt 0 0.9
vt 0 0.7
vt 0.1875 0.6
vt 0.1875 1
vt 0 0.8
vt 0.4375 0.8
vt 0.625 0.9
vt 0.5 1
vt 0.125 0.8
vt 0.625 1
vt 0 1
vt 0 0.9
vt 0.4375 0.8
vt 0.5625 0.9
vt 0.375 1
vt 0 0.8
vt 0.1875 0.8
vt 0.5625 1
vt 0.125 1
vt 0 0.9
vt 0.4375 1
vt 0 1
vt 0.5625 0.8
vt 0.5625 0.9
vt 0.125 0.8
vt 0.75 0.8
vt 0.1875 1
vt 0 0.9
vn 0 1 0
vn 0 1 0
vn 0 1 0
vn 0 1 0
vn 0 1 0
vn 0 1 0
vn 0 1 0
vn 0 1 0
usemtl none
f 31/25/7 20/26/7 19/27/7 27/28/7
f 21/29/8 22/30/8 28/31/8 30/32/8
f 24/33/9 21/34/9 30/35/9 16/36/9
f 24/37/10 16/38/10 18/39/10 29/40/10
f 26/41/11 28/42/11 22/43/11 19/44/11
f 19/45/12 22/46/12 25/47/12 27/48/12
f 23/49/13 20/50/13 15/51/13 32/52/13
f 17/53/14 15/54/14 20/55/14 31/56/14
o 5
v 0.375 0.0625 -0.5
v 0.25 0.0625 0.5
v -0.25 0.0625 -0.5
v -0.375 0.0625 0.5
v -0.1875 0.0625 -0.1
v -0.1875 0.0625 -0.3
v 0.1875 0.0625 0.3
v 0.1875 0.0625 0.1
v 0.25 0.0625 -0.3
v -0.25 0.0625 0.3
v -0.25 0.0625 0.1
v 0.25 0.0625 -0.1
v -0.375 0.0625 0
v 0.375 0.0625 0
v -0.375 0.0625 0.4
v 0.375 0.0625 0.4
v -0.375 0.0625 -0.4
v 0.375 0.0625 -0.4
vt 0.1875 0.9
vt 0.1875 0.7
vt 0 0.6
vt 0 1
vt 0.1875 0.6
vt 0 0.7
vt 0 0.9
vt 0.1875 1
vt 0.625 0.9
vt 0.4375 0.8
vt 0 0.8
vt 0.5 1
vt 0 1
vt 0.625 1
vt 0.125 0.8
vt 0 0.9
vt 0.375 1
vt 0.5625 0.9
vt 0.4375 0.8
vt 0 0.8
vt 0.125 1
vt 0.5625 1
vt 0.1875 0.8
vt 0 0.9
vt 0.5625 0.8
vt 0 1
vt 0.4375 1
vt 0.5625 0.9
vt 0.1875 1
vt 0.75 0.8
vt 0.125 0.8
vt 0 0.9
vn 0 1 0
vn 0 1 0
vn 0 1 0
vn 0 1 0
vn 0 1 0
vn 0 1 0
vn 0 1 0
vn 0 1 0
usemtl none
f 37/57/15 38/58/15 49/59/15 45/60/15
f 46/61/16 40/62/16 39/63/16 48/64/16
f 48/65/17 39/66/17 42/67/17 34/68/17
f 36/69/18 34/70/18 42/71/18 47/72/18
f 40/73/19 46/74/19 44/75/19 37/76/19
f 43/77/20 40/78/20 37/79/20 45/80/20
f 33/81/21 38/82/21 41/83/21 50/84/21
f 38/85/22 33/86/22 35/87/22 49/88/22
o 4
v 0.375 0.0625 0.375
v -0.375 0.0625 0.375
v -0.375 0.0625 -0.375
v 0.1875 0.0625 0.5
v -0.1875 0.0625 -0.5
v -0.1875 0.0625 0.5
v -0.1875 0.0625 -0.1
v -0.1875 0.0625 0.1
v 0.1875 0.0625 0.1
v 0.25 0.0625 -0.1
v 0.375 0.0625 0
v 0.28125 0.0625 0.5
v -0.28125 0.0625 0.5
v -0.28125 0.0625 -0.5
vt 0.1875 1
vt 0 0.725
vt 0.09375 0.6
vt 0.1875 0.6
vt 0.09375 0.6
vt 0.1875 0.725
vt 0 1
vt 0 0.6
vt 0.1875 0.9
vt 0.0625 1
vt 0 0.8
vt 0.1875 0.525
vt 0 0.25
vt 0.1875 0.525
vt 0.1875 0.725
vt 0 1
vt 0.1875 1
vt 0.09375 1
vt 0 0.875
vt 0.1875 0.6
vt 0 0.8
vt 0.375 0.8
vt 0.4375 1
vt 0 1
vn 0 1 0
vn 0 1 0
vn 0 1 0
vn 0 1 0
vn 0 1 0
vn 0 1 0
usemtl none
f 58/89/23 52/90/23 63/91/23 56/92/23
f 62/93/24 51/94/24 59/95/24 54/96/24
f 61/97/25 60/98/25 59/99/25 51/100/25
f 52/101/26 58/102/26 57/103/26 53/104/26
f 55/105/27 64/106/27 53/107/27 57/108/27
f 58/109/28 59/110/28 60/111/28 57/112/28
o 9
v 0.18750000000000003 0.0625 0.3
v 0.1875 0.0625 0.09999999999999998
v 0.37499999999999994 0.0625 -0.30000000000000004
v -0.1875 0.0625 -0.09999999999999998
v -0.18749999999999997 0.0625 0.3
v 0.28124999999999994 0.0625 -0.5
v 0.28125 0.0625 -0.10000000000000003
v 0.28125000000000006 0.0625 0.49999999999999994
v -0.28124999999999994 0.0625 0.5
v 0.37499999999999994 0.0625 -0.4000000000000001
v -0.37500000000000006 0.0625 -0.39999999999999997
v 0.37500000000000006 0.0625 0.39999999999999997
v -0.37499999999999994 0.0625 0.4000000000000001
v 0.375 0.0625 -4.592425496802574e-17
v -0.1875 0.0625 0.10000000000000003
v -0.28125000000000006 0.0625 -0.49999999999999994
v -0.18750000000000003 0.0625 -0.3
v 0.21874999999999997 0.0625 -0.3
vt 0.12733 1
vt 0 0.949245
vt 0.12733 0.7791175
vt 0.035661875 0.867646875
vt 0.2125 1
vt 0 1
vt 0 0.6
vt 0.1875 0.7
vt 0.1875 0.9
vt 0 1
vt 0.09375 0.8
vt 0.46875 0.8
vt 0.5625 1
vt 0 1
vt 0.46875 1
vt 0.09375 1
vt 0 0.8
vt 0.46875 0.8
vt 0 0.7791175
vt 0.12733 0.8298725
vt 0 1
vt 0.09375 0.8
vt 0.09375 1
vt 0 1
vt 0 0.9
vt 0.5 0.8
vt 0.40625 1
vt 0 1
vt 0 0.8
vt 0 1
vt 0 1
vt 0 1
vt 0 1
vt 0 1
vt 0 1
vt 0 1
vn 0 1 0
vn 0 1 0
vn 0 1 0
vn 0 1 0
vn 0 1 0
vn 0 1 0
vn 0 1 0
vn 0 1 0
vn 0 1 0
vn 0 1 0
usemtl none
f 72/113/29 76/114/29 65/115/29
f 71/116/30 66/117/30 78/118/30
f 78/119/31 66/120/31 65/121/31 76/122/31
f 65/123/32 69/124/32 73/125/32 72/126/32
f 79/127/33 66/128/33 71/129/33 68/130/33
f 80/131/34 75/132/34 81/133/34
f 70/134/35 82/135/35 67/136/35 74/137/35
f 80/138/36 81/139/36 82/140/36 70/141/36
f 69/142/37 81/143/37 75/144/37 77/145/37
f 77/146/38 73/147/38 69/148/38
o 8
v 0.1875 0.0625 -0.3
v 0.375 0.0625 -0.1
v 0.1875 0.0625 -0.1
v 0.375 0.0625 0.1
v 0.1875 0.0625 0.1
v 0.1875 0.0625 0.3
v 0.28125 0.0625 0.5
v 0.28125 0.0625 -0.5
v 0.375 0.0625 0.4
v 0.375 0.0625 -0.4
v 0.28125 0.0625 0
v -0.1875 0.0625 -0.3
v -0.375 0.0625 -0.1
v -0.1875 0.0625 -0.1
v -0.375 0.0625 0.1
v -0.1875 0.0625 0.1
v -0.1875 0.0625 0.3
v -0.28125 0.0625 0.5
v -0.28125 0.0625 -0.5
v -0.375 0.0625 0.4
v -0.375 0.0625 -0.4
v -0.28125 0.0625 0
vt 0.12733 0.8298725
vt 0 1
vt 0 0.7791175
vt 0 0.867646875
vt 0.2125 0.867646875
vt 0.176838125 1
vt 0 0.9
vt 0 0.7
vt 0.1875 0.7
vt 0.1875 1
vt 0 1
vt 0.09375 0.8
vt 0.46875 0.8
vt 0.5625 1
vt 0.1875 1
vt 0 1
vt 0 0.8
vt 0.1875 0.7
vt 0.5625 0.8
vt 0.46875 1
vt 0.09375 1
vt 0 0.8
vt 0.75 0.9
vt 0.65625 1
vt 0.09375 1
vt 0 0.9
vt 0.09375 0.9
vt 0.65625 0.9
vt 0.75 1
vt 0 1
vt 0 1
vt 0.12733 0.8298725
vt 0 0.7791175
vt 0.2125 0.867646875
vt 0 0.867646875
vt 0.176838125 1
vt 0.1875 0.7
vt 0 0.7
vt 0 0.9
vt 0.1875 1
vt 0 0.8
vt 0 1
vt 0.1875 1
vt 0.1875 0.7
vn 0 1 0
vn 0 1 0
vn 0 1 0
vn 0 1 0
vn 0 1 0
vn 0 1 0
vn 0 1 0
vn 0 1 0
vn 0 1 0
vn 0 1 0
vn 0 1 0
vn 0 1 0
usemtl none
f 91/149/39 88/150/39 89/151/39
f 83/152/40 92/153/40 90/154/40
f 83/155/41 85/156/41 84/157/41 92/158/41
f 101/159/42 94/160/42 83/161/42 90/162/42
f 86/163/43 87/164/43 88/165/43 91/166/43
f 89/167/44 88/168/44 99/169/44 100/170/44
f 86/171/45 93/172/45 104/173/45 97/174/45
f 104/175/46 93/176/46 84/177/46 95/178/46
f 99/179/47 102/180/47 100/181/47
f 103/182/48 94/183/48 101/184/48
f 95/185/49 96/186/49 94/187/49 103/188/49
f 99/189/50 98/190/50 97/191/50 102/192/50
o 6
v -0.1875 0.0625 -0.3
v -0.1875 0.0625 -0.1
v -0.375 0.0625 0.3
v 0.1875 0.0625 0.1
v 0.1875 0.0625 -0.3
v -0.28125 0.0625 0.5
v -0.28125 0.0625 0.1
v -0.28125 0.0625 -0.5
v 0.28125 0.0625 -0.5
v -0.375 0.0625 0.4
v 0.375 0.0625 0.4
v -0.375 0.0625 -0.4
v 0.375 0.0625 -0.4
v -0.375 0.0625 0
v 0.1875 0.0625 -0.1
v 0.28125 0.0625 0.5
v 0.1875 0.0625 0.3
v -0.21875 0.0625 0.3
vt 0.12733 1
vt 0 0.949245
vt 0.12733 0.7791175
vt 0.035661875 0.867646875
vt 0.2125 1
vt 0 1
vt 0 0.6
vt 0.1875 0.7
vt 0.1875 0.9
vt 0 1
vt 0.09375 0.8
vt 0.46875 0.8
vt 0.5625 1
vt 0 1
vt 0.46875 1
vt 0.09375 1
vt 0 0.8
vt 0.46875 0.8
vt 0 0.7791175
vt 0.12733 0.8298725
vt 0 1
vt 0.09375 0.8
vt 0.09375 1
vt 0 1
vt 0 0.9
vt 0.5 0.8
vt 0.40625 1
vt 0 1
vt 0 0.8
vt 0 1
vt 0 1
vt 0 1
vt 0 1
vt 0 1
vt 0 1
vt 0 1
vn 0 1 0
vn 0 1 0
vn 0 1 0
vn 0 1 0
vn 0 1 0
vn 0 1 0
vn 0 1 0
vn 0 1 0
vn 0 1 0
vn 0 1 0
usemtl none
f 112/193/51 116/194/51 105/195/51
f 111/196/52 106/197/52 118/198/52
f 118/199/53 106/200/53 105/201/53 116/202/53
f 105/203/54 109/204/54 113/205/54 112/206/54
f 119/207/55 106/208/55 111/209/55 108/210/55
f 120/211/56 115/212/56 121/213/56
f 110/214/57 122/215/57 107/216/57 114/217/57
f 120/218/58 121/219/58 122/220/58 110/221/58
f 109/222/59 121/223/59 115/224/59 117/225/59
f 117/226/60 113/227/60 109/228/60
o 0
v 0.1875 0.0625 -0.3
v 0.1875 0.0625 0.3
v 0.28125 0.0625 0.5
v 0.28125 0.0625 -0.5
v 0.375 0.0625 0.4
v 0.375 0.0625 -0.4
v -0.1875 0.0625 -0.3
v -0.1875 0.0625 0.3
v -0.28125 0.0625 0.5
v -0.28125 0.0625 -0.5
v -0.375 0.0625 0.4
v -0.375 0.0625 -0.4
vt 0 1
vt 0.09375 0.8
vt 0.46875 0.8
vt 0.5625 1
vt 0.5625 0.8
vt 0.46875 1
vt 0.09375 1
vt 0 0.8
vt 0.12733 0.8298725
vt 0 1
vt 0 0.7791175
vt 0 0.867646875
vt 0.2125 0.867646875
vt 0.176838125 1
vt 0.1875 0.19999999999999996
vt 0.1875 1
vt 0 0.8999999999999999
vt 0 0.30000000000000004
vt 0 1
vt 0.12733 0.8298725
vt 0 0.7791175
vt 0.2125 0.867646875
vt 0 0.867646875
vt 0.176838125 1
vt 0 0.8999999999999999
vt 0.1875 1
vt 0.1875 0.19999999999999996
vt 0 0.30000000000000004
vn 0 1 0
vn 0 1 0
vn 0 1 0
vn 0 1 0
vn 0 1 0
vn 0 1 0
vn 0 1 0
vn 0 1 0
usemtl none
f 132/229/61 129/230/61 123/231/61 126/232/61
f 125/233/62 124/234/62 130/235/62 131/236/62
f 127/237/63 124/238/63 125/239/63
f 123/240/64 128/241/64 126/242/64
f 127/243/65 128/244/65 123/245/65 124/246/65
f 130/247/66 133/248/66 131/249/66
f 134/250/67 129/251/67 132/252/67
f 129/253/68 134/254/68 133/255/68 130/256/68
o 7
v 0 0.0625 -0.1
v 0.0625 0.0625 0.1
v 0.1875 0.0625 0.3
v 0.28125 0.0625 0.5
v 0.375 0.0625 0.4
v -0.1875 0.0625 -0.3
v -0.1875 0.0625 -0.1
v -0.1875 0.0625 0.1
v -0.1875 0.0625 0.3
v -0.28125 0.0625 0.5
v -0.28125 0.0625 -0.5
v -0.375 0.0625 0.4
v -0.375 0.0625 -0.4
vt 0.12733 0.8298725
vt 0 1
vt 0 0.7791175
vt 0.5625 0.8
vt 0.46875 1
vt 0.09375 1
vt 0 0.8
vt 0 1
vt 0.12733 0.8298725
vt 0 0.7791175
vt 0.2125 0.867646875
vt 0 0.867646875
vt 0.176838125 1
vt 0 0.19999999999999996
vt 0.1875 0.30000000000000004
vt 0.1875 0.8999999999999999
vt 0 1
vn 0 1 0
vn 0 1 0
vn 0 1 0
vn 0 1 0
vn 0 1 0
usemtl none
f 139/257/69 137/258/69 138/259/69
f 138/260/70 137/261/70 143/262/70 144/263/70
f 143/264/71 146/265/71 144/266/71
f 147/267/72 140/268/72 145/269/72
f 146/270/73 143/271/73 140/272/73 147/273/73