# Made in Blockbench 4.11.2
mtllib materials.mtl

o cuboid
v 0.000008124999959374998 1 0.4999999996875
v 0.000008124999959374998 0.8906250000000002 -0.18749999968749997
v 0.000008124999959374998 0.28125 -0.5624999996875
v 0 0 -0.5625
v 0 0 0.5
v 0.000008124999959374998 0.21875 0.8124999996875
v 0.000008124999959374998 0.9765625 -0.0625
v 0 -0.0625 0
v 0.000008124999959374998 0.421875 0.6874999996875
v 0.000008124999959374998 0.5859375000000001 -0.4999999996875
v 0.000008124999959374998 0.7734375 0.6562499996875
v 0.000008124999959374998 0.8007812500000002 -0.3749999996875
v 0.40625 1.0625 0.375
v 0.8125 1.8125 -0.25
v 0.50625 0.1875 0.4375
v 0.44375 0.125 -0.3125
v 0.40625 0.46875 0.5625
v 0.40625 0.671875 -0.4375
v 0.771875 1.6562500000000002 0.0625
v 0.65 0.1875 0
v 0.56875 0.7265625 0.0625
v 0.3859415624999797 1.25390625 0.0625
v 0.5312540624999798 1.3515625 -0.34374999984375
v 0.2031290624999797 0.4765625 -0.46874999984375
v 0.284375 0 -0.4375
v 0.325 0 0
v 0.284375 0 0.375
v 0.2656290624999797 0.46875 0.59374999984375
v 0.1406290624999797 0.875 0.40624999984375
v 0.1718790624999797 0.765625 0.49999999984375
v 0.7328125 1.19140625 0.125
v 0.671875 1.2421875 -0.4375
v 0.3046915624999797 0.9140625 -0.46874999984375
v 0.7734375 1.49609375 -0.4375
v 0.78359375 1.423828125 0.0625
v 0.40625 0.8203125 0.421875
v 0.1562540624999797 0.8203125 0.45312499984375
v 0.3554728124999797 1.0703125 -0.40624999984375
v 0.40625 0.703125 0.53125
v -0.40625 1.0625 0.375
v -0.8125 1.8125 -0.25
v -0.50625 0.1875 0.4375
v -0.44375 0.125 -0.3125
v -0.40625 0.46875 0.5625
v -0.40625 0.671875 -0.4375
v -0.771875 1.6562500000000002 0.0625
v -0.65 0.1875 0
v -0.56875 0.7265625 0.0625
v -0.3859415624999797 1.25390625 0.0625
v -0.5312540624999798 1.3515625 -0.34374999984375
v -0.2031290624999797 0.4765625 -0.46874999984375
v -0.284375 0 -0.4375
v -0.325 0 0
v -0.284375 0 0.375
v -0.2656290624999797 0.46875 0.59374999984375
v -0.1406290624999797 0.875 0.40624999984375
v -0.1718790624999797 0.765625 0.49999999984375
v -0.7328125 1.19140625 0.125
v -0.671875 1.2421875 -0.4375
v -0.3046915624999797 0.9140625 -0.46874999984375
v -0.7734375 1.49609375 -0.4375
v -0.78359375 1.423828125 0.0625
v -0.40625 0.8203125 0.421875
v -0.1562540624999797 0.8203125 0.45312499984375
v -0.3554728124999797 1.0703125 -0.40624999984375
v -0.40625 0.703125 0.53125
vt 0.875 0.375
vt 0.4375 0.375
vt 0.4375 -0.25
vt 0.875 -0.25
vt 0.875 1
vt 0.65625 1
vt 0.65625 0.5625
vt 0.875 0.5625
vt 0.875 0.5625
vt 0.65625 0.5625
vt 0.65625 0.125
vt 0.875 0.125
vt 0.875 0.375
vt 0.65625 0.375
vt 0.65625 -0.25
vt 0.875 -0.25
vt 0 -0.25
vt 0.21875 -0.25
vt 0.21875 0.375
vt 0 0.375
vt 0.875 0.375
vt 0.875 0.6875
vt 0.4375 0.6875
vt 0.4375 0.375
vt 0.21875 0.375
vt 0.21875 0.6875
vt 0 0.6875
vt 0 0.375
vt 0.875 1
vt 0.65625 1
vt 0.65625 0.5625
vt 0.875 0.5625
vt 0 -0.25
vt 0.4375 -0.25
vt 0.4375 0.375
vt 0 0.375
vt 0.4375 0.5625
vt 0.65625 0.5625
vt 0.65625 1
vt 0.4375 1
vt 0.4375 0.375
vt 0.4375 0.6875
vt 0.21875 0.6875
vt 0.21875 0.375
vt 0.4375 0.375
vt 0.21875 0.375
vt 0.21875 -0.25
vt 0.4375 -0.25
vt 0.4375 0.125
vt 0.65625 0.125
vt 0.65625 0.5625
vt 0.4375 0.5625
vt 0.4375 0.5625
vt 0.65625 0.5625
vt 0.65625 1
vt 0.4375 1
vt 0.4375 -0.25
vt 0.65625 -0.25
vt 0.65625 0.375
vt 0.4375 0.375
vt 0.65625 0.375
vt 0.65625 0.6875
vt 0.4375 0.6875
vt 0.4375 0.375
vt 0.4375 0.125
vt 0.65625 0.125
vt 0.4375 0.5625
vt 0.875 0.5625
vt 0.65625 0.5625
vt 0.65625 0.125
vt 0.875 0.125
vt 0.65625 0.84375
vt 0.4375 0.84375
vt 0.4375 0.6875
vt 0.65625 0.6875
vt 0.875 0.84375
vt 0.4375 0.84375
vt 0.4375 0.6875
vt 0.875 0.6875
vt 0.21875 0.84375
vt 0 0.84375
vt 0 0.6875
vt 0.21875 0.6875
vt 0.4375 0.84375
vt 0.21875 0.84375
vt 0.21875 0.6875
vt 0.4375 0.6875
vt 0.4375 0.84375
vt 0.875 0.84375
vt 0.875 1
vt 0.4375 1
vt 0 0.84375
vt 0.4375 0.84375
vt 0.4375 1
vt 0 1
vt 0.65625 0.84375
vt 0.875 0.84375
vt 0.875 1
vt 0.65625 1
vt 0.4375 0.84375
vt 0.65625 0.84375
vt 0.65625 1
vt 0.4375 1
vt 0.21875 0.84375
vt 0.4375 0.84375
vt 0.4375 1
vt 0.21875 1
vt 0 0.84375
vt 0.21875 0.84375
vt 0.21875 1
vt 0 1
vt 0.65625 0.125
vt 0.65625 0.5625
vt 0.4375 0.5625
vt 0.875 0.375
vt 0.875 0.6875
vt 0.65625 0.6875
vt 0.65625 0.375
vt 0.4375 0.375
vt 0.4375 0.6875
vt 0 0.6875
vt 0 0.375
vt 0.875 0.84375
vt 0.65625 0.84375
vt 0.65625 0.6875
vt 0.875 0.6875
vt 0.4375 0.84375
vt 0 0.84375
vt 0 0.6875
vt 0.4375 0.6875
vt 0.4375 -0.25
vt 0.4375 0.375
vt 0.875 0.375
vt 0.875 -0.25
vt 0.65625 0.5625
vt 0.65625 1
vt 0.875 1
vt 0.875 0.5625
vt 0.65625 0.125
vt 0.65625 0.5625
vt 0.875 0.5625
vt 0.875 0.125
vt 0.65625 -0.25
vt 0.65625 0.375
vt 0.875 0.375
vt 0.875 -0.25
vt 0.21875 0.375
vt 0.21875 -0.25
vt 0 -0.25
vt 0 0.375
vt 0.4375 0.6875
vt 0.875 0.6875
vt 0.875 0.375
vt 0.4375 0.375
vt 0 0.6875
vt 0.21875 0.6875
vt 0.21875 0.375
vt 0 0.375
vt 0.65625 0.5625
vt 0.65625 1
vt 0.875 1
vt 0.875 0.5625
vt 0.4375 0.375
vt 0.4375 -0.25
vt 0 -0.25
vt 0 0.375
vt 0.65625 1
vt 0.65625 0.5625
vt 0.4375 0.5625
vt 0.4375 1
vt 0.21875 0.6875
vt 0.4375 0.6875
vt 0.4375 0.375
vt 0.21875 0.375
vt 0.21875 -0.25
vt 0.21875 0.375
vt 0.4375 0.375
vt 0.4375 -0.25
vt 0.65625 0.5625
vt 0.65625 0.125
vt 0.4375 0.125
vt 0.4375 0.5625
vt 0.65625 1
vt 0.65625 0.5625
vt 0.4375 0.5625
vt 0.4375 1
vt 0.65625 0.375
vt 0.65625 -0.25
vt 0.4375 -0.25
vt 0.4375 0.375
vt 0.4375 0.6875
vt 0.65625 0.6875
vt 0.65625 0.375
vt 0.4375 0.375
vt 0.65625 0.125
vt 0.4375 0.125
vt 0.4375 0.5625
vt 0.65625 0.125
vt 0.65625 0.5625
vt 0.875 0.5625
vt 0.875 0.125
vt 0.4375 0.6875
vt 0.4375 0.84375
vt 0.65625 0.84375
vt 0.65625 0.6875
vt 0.4375 0.6875
vt 0.4375 0.84375
vt 0.875 0.84375
vt 0.875 0.6875
vt 0 0.6875
vt 0 0.84375
vt 0.21875 0.84375
vt 0.21875 0.6875
vt 0.21875 0.6875
vt 0.21875 0.84375
vt 0.4375 0.84375
vt 0.4375 0.6875
vt 0.875 1
vt 0.875 0.84375
vt 0.4375 0.84375
vt 0.4375 1
vt 0.4375 1
vt 0.4375 0.84375
vt 0 0.84375
vt 0 1
vt 0.875 1
vt 0.875 0.84375
vt 0.65625 0.84375
vt 0.65625 1
vt 0.65625 1
vt 0.65625 0.84375
vt 0.4375 0.84375
vt 0.4375 1
vt 0.4375 1
vt 0.4375 0.84375
vt 0.21875 0.84375
vt 0.21875 1
vt 0.21875 1
vt 0.21875 0.84375
vt 0 0.84375
vt 0 1
vt 0.65625 0.5625
vt 0.65625 0.125
vt 0.4375 0.5625
vt 0.65625 0.6875
vt 0.875 0.6875
vt 0.875 0.375
vt 0.65625 0.375
vt 0 0.6875
vt 0.4375 0.6875
vt 0.4375 0.375
vt 0 0.375
vt 0.65625 0.6875
vt 0.65625 0.84375
vt 0.875 0.84375
vt 0.875 0.6875
vt 0 0.6875
vt 0 0.84375
vt 0.4375 0.84375
vt 0.4375 0.6875
vn 0.9300649386245198 0.1774802818659635 -0.3216830108820587
vn -0.8263676290907843 0.5380307990545157 -0.16625101761984948
vn 0.4991853146323036 -0.8652545453626596 -0.046352922072999604
vn 0.19805974018140077 -0.40799276744973395 0.8912430875064242
vn 0.5926794032012709 0.04832142553474408 -0.8039876646163643
vn 0.8981929257045029 -0.4183364311500425 -0.13507071698569992
vn 0.106737430225809 -0.02477833201670566 -0.993978448081879
vn 0.6326097982939399 -0.7714325040306657 0.06853272814851014
vn 0.944639399387952 0.10639416837827044 0.31038151694175575
vn -0.580930273867554 0.8138625751042616 -0.012154248180313926
vn -0.11515957253093656 0.1996072633896624 -0.9730854090246045
vn 0.4108851211117517 0.010270073777511803 -0.911629279276168
vn 0 -1 0
vn 0.18880788511759267 -0.981801002611482 0.020454187554405884
vn 0.37217575609060677 -0.38024278938020656 0.8466998451061304
vn 0.25251164611802124 0.36298138854100753 0.8969294175951692
vn 0.6522089556926913 0.7573820679608009 -0.031557586182565364
vn -0.7004483295542502 0.6718792863466094 0.2407288146504928
vn 0.785286441589226 0.05481787258349372 0.6167010665643047
vn 0.9725683114933952 -0.22661373115889819 -0.05250805965876905
vn -0.12503559734004657 0.05001423893601861 -0.9908908493378414
vn -0.41132806806543704 0.45060740251122366 -0.7923144509748915
vn 0.9941673901036508 -0.10203110954581893 -0.0349407089130245
vn 0.6608149920330546 0.033318402959649794 0.7498089292136848
vn 0.12181059046849656 0.1886068825632843 0.9744688932436356
vn 0.5367000732285945 0.6322653298503242 0.5587428604158466
vn -0.5852609545112568 0.7312330184226928 -0.35038248799420696
vn -0.554435655375422 0.4951644188364336 -0.6688896040205762
vn -0.6189495480965304 0.7084237934269422 0.3391713222217971
vn -0.09646969152139656 0.13154729825774816 0.9866047369331112
vn 0.8893441380690954 -0.3529661876855197 0.29065765847967706
vn 0.09284097138001518 0.6631394536178453 0.7427157054274812
vn -0.36741230669869973 0.6345956622979844 0.6799239238906977
vn -0.9300649386245198 0.17748028186596349 -0.32168301088205864
vn 0.8263676290907843 0.5380307990545157 -0.1662510176198494
vn -0.4991853146323036 -0.8652545453626596 -0.046352922072999646
vn -0.19805974018140068 -0.40799276744973373 0.891243087506424
vn -0.5926794032012709 0.04832142553474408 -0.8039876646163643
vn -0.8981929257045029 -0.4183364311500425 -0.13507071698569997
vn -0.10673743022580898 -0.024778332016705665 -0.993978448081879
vn -0.6326097982939399 -0.7714325040306658 0.06853272814851019
vn -0.944639399387952 0.10639416837827044 0.31038151694175575
vn 0.580915806459365 0.8138730163875831 -0.012146563375814124
vn 0.11515351237453304 0.19960740456104328 -0.9730860972350865
vn -0.41086166879186414 0.010265378970110905 -0.9116399021061795
vn 0 -1 0
vn -0.1888078851175927 -0.981801002611482 0.020454187554405884
vn -0.37217575609060677 -0.38024278938020656 0.8466998451061304
vn -0.25249837076420706 0.36297871782964475 0.8969342356963348
vn -0.6521656489685301 0.7574192941561327 -0.03155913727403838
vn 0.7004483295542502 0.6718792863466095 0.2407288146504928
vn -0.7852551349306967 0.0548213881638852 0.6167406168437085
vn -0.9725683114933952 -0.22661373115889819 -0.052508059658769056
vn 0.12503559734004657 0.050014238936018626 -0.9908908493378414
vn 0.41130884081132196 0.45060556439312155 -0.7923254778236046
vn -0.9941673901036508 -0.10203110954581893 -0.034940708913024504
vn -0.6608149920330547 0.03331840295964979 0.7498089292136846
vn -0.12181059046849654 0.18860688256328428 0.9744688932436354
vn -0.5366684566664369 0.6322739577425208 0.5587634651441287
vn 0.5852433642421107 0.7312444680728224 -0.35038797428489404
vn 0.5544356553754223 0.4951644188364337 -0.6688896040205761
vn 0.6189333181697093 0.7084294452080189 0.33918913429190517
vn 0.09646969152139655 0.13154729825774816 0.9866047369331112
vn -0.8893441380690954 -0.3529661876855197 0.290657658479677
vn -0.09284097138001517 0.6631394536178453 0.7427157054274811
vn 0.36741230669869995 0.6345956622979844 0.6799239238906976
usemtl none
f 18/1/1 21/2/1 20/3/1 16/4/1
f 14/5/2 23/6/2 22/7/2 19/8/2
f 20/9/3 26/10/3 25/11/3 16/12/3
f 17/13/4 28/14/4 27/15/4 15/16/4
f 16/17/5 25/18/5 24/19/5 18/20/5
f 18/21/6 32/22/6 31/23/6 21/24/6
f 24/25/7 33/26/7 32/27/7 18/28/7
f 15/29/8 27/30/8 26/31/8 20/32/8
f 15/33/9 20/34/9 21/35/9 17/36/9
f 7/37/10 22/38/10 23/39/10 2/40/10
f 3/41/11 10/42/11 33/43/11 24/44/11
f 3/45/12 24/46/12 25/47/12 4/48/12
f 4/49/13 25/50/13 26/51/13 8/52/13
f 8/53/14 26/54/14 27/55/14 5/56/14
f 5/57/15 27/58/15 28/59/15 6/60/15
f 28/61/16 30/62/16 9/63/16 6/64/16
f 1/65/17 29/66/17 7/67/17
f 19/68/18 22/69/18 29/70/18 13/71/18
f 37/72/19 11/73/19 9/74/19 30/75/19
f 34/76/20 35/77/20 31/78/20 32/79/20
f 38/80/21 34/81/21 32/82/21 33/83/21
f 12/84/22 38/85/22 33/86/22 10/87/22
f 35/88/23 34/89/23 14/90/23 19/91/23
f 36/92/24 35/93/24 19/94/24 13/95/24
f 37/96/25 36/97/25 13/98/25 29/99/25
f 11/100/26 37/101/26 29/102/26 1/103/26
f 38/104/27 12/105/27 2/106/27 23/107/27
f 34/108/28 38/109/28 23/110/28 14/111/28
f 29/112/29 22/113/29 7/114/29
f 17/115/30 39/116/30 30/117/30 28/118/30
f 21/119/31 31/120/31 39/121/31 17/122/31
f 36/123/32 37/124/32 30/125/32 39/126/32
f 35/127/33 36/128/33 39/129/33 31/130/33
f 47/131/34 48/132/34 45/133/34 43/134/34
f 49/135/35 50/136/35 41/137/35 46/138/35
f 52/139/36 53/140/36 47/141/36 43/142/36
f 54/143/37 55/144/37 44/145/37 42/146/37
f 51/147/38 52/148/38 43/149/38 45/150/38
f 58/151/39 59/152/39 45/153/39 48/154/39
f 59/155/40 60/156/40 51/157/40 45/158/40
f 53/159/41 54/160/41 42/161/41 47/162/41
f 48/163/42 47/164/42 42/165/42 44/166/42
f 50/167/43 49/168/43 7/169/43 2/170/43
f 60/171/44 10/172/44 3/173/44 51/174/44
f 52/175/45 51/176/45 3/177/45 4/178/45
f 53/179/46 52/180/46 4/181/46 8/182/46
f 54/183/47 53/184/47 8/185/47 5/186/47
f 55/187/48 54/188/48 5/189/48 6/190/48
f 9/191/49 57/192/49 55/193/49 6/194/49
f 56/195/50 1/196/50 7/197/50
f 56/198/51 49/199/51 46/200/51 40/201/51
f 9/202/52 11/203/52 64/204/52 57/205/52
f 58/206/53 62/207/53 61/208/53 59/209/53
f 59/210/54 61/211/54 65/212/54 60/213/54
f 60/214/55 65/215/55 12/216/55 10/217/55
f 41/218/56 61/219/56 62/220/56 46/221/56
f 46/222/57 62/223/57 63/224/57 40/225/57
f 40/226/58 63/227/58 64/228/58 56/229/58
f 56/230/59 64/231/59 11/232/59 1/233/59
f 2/234/60 12/235/60 65/236/60 50/237/60
f 50/238/61 65/239/61 61/240/61 41/241/61
f 49/242/62 56/243/62 7/244/62
f 57/245/63 66/246/63 44/247/63 55/248/63
f 66/249/64 58/250/64 48/251/64 44/252/64
f 57/253/65 64/254/65 63/255/65 66/256/65
f 66/257/66 63/258/66 62/259/66 58/260/66