# Made in Blockbench 4.12.4
mtllib plane.mtl

o plane
v 1.125 0 0.5
v 1.125 0 -0.5
v 0.125 0 0.5
v 0.125 0 -0.5
v 1.125 0 0.25
v 0.125 0 0.25
v 1.125 0 -0.25
v 0.125 0 -0.25
v 0.875 0 0.25
v 0.375 0 0.25
v 0.875 0 0.5
v 0.375 0 0.5
v 0.875 0 -0.25
v 0.625 0 -0.25
v 0.375 0 -0.25
v 0.875 0 -0.5
v 0.625 0 -0.5
v 0.375 0 -0.5
v 1.125 0 0
v 0.875 0 0
v 0.625 0 0.25
v 0.625 0 0.5
vt 0 0.75
vt 0.25 0.75
vt 0.25 1
vt 0 1
vt 0 0
vt 0.25 0
vt 0.25 0.25
vt 0 0.25
vt 0.75 0
vt 0.75 0.25
vt 1 0.25
vt 1 0
vt 1 1
vt 0.75 1
vt 0.75 0.75
vt 1 0.75
vt 0.75 1
vt 0.5 1
vt 0.5 0.75
vt 0.75 0.75
vt 0.5 1
vt 0.25 1
vt 0.25 0.75
vt 0.5 0.75
vt 0.75 0.25
vt 0.75 0.5
vt 1 0.5
vt 1 0.25
vt 0.25 0
vt 0.25 0.25
vt 0.5 0.25
vt 0.5 0
vt 0.75 0.5
vt 0.75 0.75
vt 1 0.75
vt 1 0.5
vn 0 1 0
vn 0 1 0
vn 0 -1 0
vn 0 1 0
vn 0 1 0
vn 0 1 0
vn 0 -1 0
vn 0 -1 0
vn 0 -1 0
usemtl none
f 8/1/1 15/2/1 18/3/1 4/4/1
f 3/5/2 12/6/2 10/7/2 6/8/2
f 11/9/3 9/10/3 5/11/3 1/12/3
f 2/13/4 16/14/4 13/15/4 7/16/4
f 16/17/5 17/18/5 14/19/5 13/20/5
f 17/21/6 18/22/6 15/23/6 14/24/6
f 9/25/7 20/26/7 19/27/7 5/28/7
f 12/29/8 10/30/8 21/31/8 22/32/8
f 20/33/9 13/34/9 7/35/9 19/36/9