# Made in Blockbench 4.12.4
mtllib materials.mtl

o sphere
v 0 -0.5 0
v 0 0.5 0
v 0.14644660940672624 0.3535533905932738 0.3535533905932738
v 0.20710678118654754 3.061616997868383e-17 0.5
v 0.14644660940672627 -0.35355339059327373 0.35355339059327384
v 0.3535533905932738 0.3535533905932738 0.14644660940672627
v 0.5 3.061616997868383e-17 0.20710678118654757
v 0.35355339059327384 -0.35355339059327373 0.1464466094067263
v 0.3535533905932738 0.3535533905932738 -0.1464466094067262
v 0.5 3.061616997868383e-17 -0.20710678118654752
v 0.35355339059327384 -0.35355339059327373 -0.14644660940672624
v 0.1464466094067263 0.3535533905932738 -0.3535533905932738
v 0.2071067811865476 3.061616997868383e-17 -0.5
v 0.1464466094067263 -0.35355339059327373 -0.35355339059327384
v -0.1464466094067262 0.3535533905932738 -0.3535533905932738
v -0.2071067811865475 3.061616997868383e-17 -0.5000000000000001
v -0.1464466094067262 -0.35355339059327373 -0.35355339059327384
v -0.3535533905932737 0.3535533905932738 -0.14644660940672646
v -0.4999999999999999 3.061616997868383e-17 -0.20710678118654785
v -0.35355339059327373 -0.35355339059327373 -0.1464466094067265
v -0.35355339059327373 0.3535533905932738 0.14644660940672632
v -0.49999999999999994 3.061616997868383e-17 0.20710678118654766
v -0.3535533905932738 -0.35355339059327373 0.14644660940672635
v -0.1464466094067265 0.3535533905932738 0.3535533905932737
v -0.20710678118654788 3.061616997868383e-17 0.4999999999999999
v -0.1464466094067265 -0.35355339059327373 0.35355339059327373
vt 0 0.6173124999999999
vt 0.2928875 0.6173124999999999
vt 0.14644375 1
vt 0.06066249999999998 1
vt 0 0.6173124999999999
vt 0.4142125 0.6173124999999999
vt 0.35355000000000003 1
vt 0 1
vt 0.06066249999999998 0.6173124999999999
vt 0.35355000000000003 0.6173124999999999
vt 0.4142125 1
vt 0.2928875 1
vt 0 1
vt 0.14644375 0.6173124999999999
vt 0 0.6173124999999999
vt 0.2928875 0.6173124999999999
vt 0.14644375 1
vt 0.06066249999999998 1
vt 0 0.6173124999999999
vt 0.4142125 0.6173124999999999
vt 0.35355000000000003 1
vt 0 1
vt 0.06066249999999998 0.6173124999999999
vt 0.35355000000000003 0.6173124999999999
vt 0.4142125 1
vt 0.2928875 1
vt 0 1
vt 0.14644375 0.6173124999999999
vt 0 0.6173124999999999
vt 0.2928875 0.6173124999999999
vt 0.14644375 1
vt 0.06066249999999998 1
vt 0 0.6173124999999999
vt 0.4142125 0.6173124999999999
vt 0.35355000000000003 1
vt 0 1
vt 0.06066249999999998 0.6173124999999999
vt 0.35355000000000003 0.6173124999999999
vt 0.4142125 1
vt 0.2928875 1
vt 0 1
vt 0.14644375 0.6173124999999999
vt 0 0.6173124999999999
vt 0.2928875 0.6173124999999999
vt 0.14644375 1
vt 0.06066249999999998 1
vt 0 0.6173124999999999
vt 0.4142125 0.6173124999999999
vt 0.35355000000000003 1
vt 0 1
vt 0.06066249999999998 0.6173124999999999
vt 0.35355000000000003 0.6173124999999999
vt 0.4142125 1
vt 0.2928875 1
vt 0 1
vt 0.14644375 0.6173124999999999
vt 0 0.6173124999999999
vt 0.2928875 0.6173124999999999
vt 0.14644375 1
vt 0.06066249999999998 1
vt 0 0.6173124999999999
vt 0.4142125 0.6173124999999999
vt 0.35355000000000003 1
vt 0 1
vt 0.06066249999999998 0.6173124999999999
vt 0.35355000000000003 0.6173124999999999
vt 0.4142125 1
vt 0.2928875 1
vt 0 1
vt 0.14644375 0.6173124999999999
vt 0 0.6173124999999999
vt 0.2928875 0.6173124999999999
vt 0.14644375 1
vt 0.06066249999999998 1
vt 0 0.6173124999999999
vt 0.4142125 0.6173124999999999
vt 0.35355000000000003 1
vt 0 1
vt 0.06066249999999998 0.6173124999999999
vt 0.35355000000000003 0.6173124999999999
vt 0.4142125 1
vt 0.2928875 1
vt 0 1
vt 0.14644375 0.6173124999999999
vt 0 0.6173124999999999
vt 0.2928875 0.6173124999999999
vt 0.14644375 1
vt 0.06066249999999998 1
vt 0 0.6173124999999999
vt 0.4142125 0.6173124999999999
vt 0.35355000000000003 1
vt 0 1
vt 0.06066249999999998 0.6173124999999999
vt 0.35355000000000003 0.6173124999999999
vt 0.4142125 1
vt 0.2928875 1
vt 0 1
vt 0.14644375 0.6173124999999999
vt 0 0.6173124999999999
vt 0.2928875 0.6173124999999999
vt 0.14644375 1
vt 0.06066249999999998 1
vt 0 0.6173124999999999
vt 0.4142125 0.6173124999999999
vt 0.35355000000000003 1
vt 0 1
vt 0.06066249999999998 0.6173124999999999
vt 0.35355000000000003 0.6173124999999999
vt 0.4142125 1
vt 0.2928875 1
vt 0 1
vt 0.14644375 0.6173124999999999
vn 0.27059805007309845 0.923879532511287 0.2705980500730985
vn 0.6532814824381883 0.38268343236508984 0.6532814824381883
vn 0.6532814824381883 -0.3826834323650896 0.6532814824381883
vn 0.27059805007309845 -0.9238795325112867 0.27059805007309845
vn 0.3826834323650898 0.923879532511287 0
vn 0.9238795325112868 0.38268343236508984 0
vn 0.923879532511287 -0.3826834323650897 0
vn 0.3826834323650898 -0.9238795325112867 0
vn 0.27059805007309856 0.923879532511287 -0.27059805007309845
vn 0.6532814824381884 0.38268343236508984 -0.6532814824381882
vn 0.6532814824381884 -0.3826834323650896 -0.6532814824381883
vn 0.27059805007309856 -0.9238795325112867 -0.27059805007309845
vn 0 0.923879532511287 -0.3826834323650898
vn 2.626500708507132e-16 0.38268343236508984 -0.9238795325112868
vn 0 -0.38268343236508967 -0.923879532511287
vn 0 -0.9238795325112867 -0.3826834323650898
vn -0.27059805007309834 0.923879532511287 -0.2705980500730985
vn -0.6532814824381881 0.38268343236509006 -0.6532814824381884
vn -0.653281482438188 -0.38268343236508984 -0.6532814824381885
vn -0.2705980500730984 -0.923879532511287 -0.2705980500730986
vn -0.3826834323650897 0.9238795325112867 -7.252881433641306e-17
vn -0.9238795325112867 0.3826834323650898 -1.3132503542535645e-16
vn -0.9238795325112868 -0.38268343236508956 -1.8572164617766623e-16
vn -0.3826834323650899 -0.9238795325112867 -7.252881433641306e-17
vn -0.27059805007309845 0.9238795325112868 0.27059805007309834
vn -0.6532814824381885 0.38268343236509 0.6532814824381881
vn -0.6532814824381884 -0.38268343236508967 0.6532814824381883
vn -0.2705980500730985 -0.923879532511287 0.27059805007309845
vn -1.4505762867282612e-16 0.9238795325112867 0.3826834323650897
vn -2.6265007085071295e-16 0.3826834323650898 0.9238795325112867
vn -3.7144329235533245e-16 -0.38268343236508956 0.9238795325112868
vn -1.4505762867282617e-16 -0.9238795325112867 0.3826834323650898
usemtl none
f 3/1/1 6/2/1 2/3/1
f 3/4/2 4/5/2 7/6/2 6/7/2
f 4/8/3 5/9/3 8/10/3 7/11/3
f 8/12/4 5/13/4 1/14/4
f 6/15/5 9/16/5 2/17/5
f 6/18/6 7/19/6 10/20/6 9/21/6
f 7/22/7 8/23/7 11/24/7 10/25/7
f 11/26/8 8/27/8 1/28/8
f 9/29/9 12/30/9 2/31/9
f 9/32/10 10/33/10 13/34/10 12/35/10
f 10/36/11 11/37/11 14/38/11 13/39/11
f 14/40/12 11/41/12 1/42/12
f 12/43/13 15/44/13 2/45/13
f 12/46/14 13/47/14 16/48/14 15/49/14
f 13/50/15 14/51/15 17/52/15 16/53/15
f 17/54/16 14/55/16 1/56/16
f 15/57/17 18/58/17 2/59/17
f 15/60/18 16/61/18 19/62/18 18/63/18
f 16/64/19 17/65/19 20/66/19 19/67/19
f 20/68/20 17/69/20 1/70/20
f 18/71/21 21/72/21 2/73/21
f 18/74/22 19/75/22 22/76/22 21/77/22
f 19/78/23 20/79/23 23/80/23 22/81/23
f 23/82/24 20/83/24 1/84/24
f 21/85/25 24/86/25 2/87/25
f 21/88/26 22/89/26 25/90/26 24/91/26
f 22/92/27 23/93/27 26/94/27 25/95/27
f 26/96/28 23/97/28 1/98/28
f 24/99/29 3/100/29 2/101/29
f 24/102/30 25/103/30 4/104/30 3/105/30
f 25/106/31 26/107/31 5/108/31 4/109/31
f 5/110/32 26/111/32 1/112/32