# Made in Blockbench 4.12.4
mtllib supelips.mtl

o sphere
v 0 -0.43750000000000006 -0.004238698177767733
v 0 0.43750000000000006 -0.004238698177767733
v 0.08354901314220295 0.3941738797073084 0.20866983413749543
v 0.15055011957018985 0.27277678831319596 0.37940922047592873
v 0.1877329284412526 0.09735290860588758 0.4741624313920498
v 0.1877329284412526 -0.09735290860588752 0.4741624313920498
v 0.15055011957018985 -0.2727767883131959 0.37940922047592873
v 0.08354901314220296 -0.3941738797073084 0.20866983413749546
v 0.2315069673904886 0.3941738797073084 0.15989505521003095
v 0.4171611406426615 0.27277678831319596 0.2915201057709919
v 0.5201914338449126 0.09735290860588758 0.3645664979662086
v 0.5201914338449126 -0.09735290860588752 0.3645664979662086
v 0.4171611406426615 -0.2727767883131959 0.2915201057709919
v 0.23150696739048865 -0.3941738797073084 0.15989505521003097
v 0.32642946537101564 0.3941738797073084 0.0735192114075777
v 0.5882055717306317 0.27277678831319596 0.13587621336136693
v 0.7334803507410693 0.09735290860588758 0.17048173868821034
v 0.7334803507410693 -0.09735290860588752 0.17048173868821034
v 0.5882055717306317 -0.2727767883131959 0.13587621336136693
v 0.3264294653710157 -0.3941738797073084 0.07351921140757771
v 0.34657090673655466 0.3941738797073084 -0.03067003239648316
v 0.624499194980697 0.27277678831319596 -0.05186631671414074
v 0.7787377586789067 0.09735290860588758 -0.06362936706626085
v 0.7787377586789067 -0.09735290860588752 -0.06362936706626085
v 0.624499194980697 -0.2727767883131959 -0.05186631671414074
v 0.3465709067365547 -0.3941738797073084 -0.030670032396483166
v 0.2873171300009423 0.3941738797073084 -0.12880417606314415
v 0.5177275786918423 0.27277678831319596 -0.2286979333579905
v 0.6455957309107572 0.09735290860588758 -0.2841347863135277
v 0.6455957309107572 -0.09735290860588752 -0.2841347863135277
v 0.5177275786918423 -0.2727767883131959 -0.2286979333579905
v 0.28731713000094233 -0.3941738797073084 -0.12880417606314415
v 0.1622424613288873 0.3941738797073084 -0.19840186992300865
v 0.2923508134183792 0.27277678831319596 -0.35410864424907307
v 0.36455550146292964 0.09735290860588758 -0.44051938488241565
v 0.36455550146292964 -0.09735290860588752 -0.44051938488241565
v 0.2923508134183792 -0.2727767883131959 -0.35410864424907307
v 0.16224246132888734 -0.3941738797073084 -0.19840186992300868
v 4.2754423042519825e-17 0.3941738797073084 -0.22351912105591665
v 7.704080825288037e-17 0.27277678831319596 -0.3993683668851468
v 9.606831654525013e-17 0.09735290860588758 -0.49695733587950935
v 9.606831654525013e-17 -0.09735290860588752 -0.49695733587950935
v 7.704080825288037e-17 -0.2727767883131959 -0.3993683668851468
v 4.275442304251983e-17 -0.3941738797073084 -0.2235191210559167
v -0.16224246132888712 0.3941738797073084 -0.19840186992300876
v -0.2923508134183788 0.27277678831319596 -0.35410864424907323
v -0.3645555014629292 0.09735290860588758 -0.44051938488241577
v -0.3645555014629292 -0.09735290860588752 -0.44051938488241577
v -0.2923508134183788 -0.2727767883131959 -0.35410864424907323
v -0.16224246132888714 -0.3941738797073084 -0.19840186992300876
v -0.2873171300009422 0.3941738797073084 -0.12880417606314415
v -0.5177275786918422 0.27277678831319596 -0.22869793335799057
v -0.6455957309107571 0.09735290860588758 -0.28413478631352773
v -0.6455957309107571 -0.09735290860588752 -0.28413478631352773
v -0.5177275786918422 -0.2727767883131959 -0.22869793335799057
v -0.2873171300009423 -0.3941738797073084 -0.1288041760631442
v -0.34657090673655466 0.3941738797073084 -0.030670032396483308
v -0.624499194980697 0.27277678831319596 -0.05186631671414102
v -0.7787377586789067 0.09735290860588758 -0.06362936706626118
v -0.7787377586789067 -0.09735290860588752 -0.06362936706626118
v -0.624499194980697 -0.2727767883131959 -0.05186631671414102
v -0.3465709067365547 -0.3941738797073084 -0.03067003239648331
v -0.32642946537101564 0.3941738797073084 0.0735192114075777
v -0.5882055717306317 0.27277678831319596 0.13587621336136693
v -0.7334803507410693 0.09735290860588758 0.17048173868821034
v -0.7334803507410693 -0.09735290860588752 0.17048173868821034
v -0.5882055717306317 -0.2727767883131959 0.13587621336136693
v -0.3264294653710157 -0.3941738797073084 0.07351921140757771
v -0.2315069673904887 0.3941738797073084 0.15989505521003086
v -0.4171611406426617 0.27277678831319596 0.29152010577099174
v -0.5201914338449128 0.09735290860588758 0.36456649796620844
v -0.5201914338449128 -0.09735290860588752 0.36456649796620844
v -0.4171611406426617 -0.2727767883131959 0.29152010577099174
v -0.23150696739048876 -0.3941738797073084 0.15989505521003092
v -0.08354901314220296 0.3941738797073084 0.20866983413749543
v -0.15055011957018985 0.27277678831319596 0.37940922047592873
v -0.18773292844125264 0.09735290860588758 0.4741624313920498
v -0.18773292844125264 -0.09735290860588752 0.4741624313920498
v -0.15055011957018985 -0.2727767883131959 0.37940922047592873
v -0.08354901314220298 -0.3941738797073084 0.20866983413749546
vt 0 0.6523125000000001
vt 0.1671 0.6523125000000001
vt 0.08355 1
vt 0.06699999999999999 1
vt 0 0.6523125000000001
vt 0.3011 0.6523125000000001
vt 0.23409999999999997 1
vt 0.03718125 1
vt 0 0.6523125000000001
vt 0.3754625 0.6523125000000001
vt 0.33828125 1
vt 0 1
vt 0 0.6523125000000001
vt 0.3754625 0.6523125000000001
vt 0.3754625 1
vt 0 1
vt 0.03718125 0.6523125000000001
vt 0.33828125 0.6523125000000001
vt 0.3754625 1
vt 0 1
vt 0.06699999999999999 0.6523125000000001
vt 0.23409999999999997 0.6523125000000001
vt 0.3011 1
vt 0.1671 1
vt 0 1
vt 0.08355 0.6523125000000001
vt 0 0.6523125000000001
vt 0.1671 0.6523125000000001
vt 0.08355 1
vt 0.06699999999999999 1
vt 0 0.6523125000000001
vt 0.3011 0.6523125000000001
vt 0.23409999999999997 1
vt 0.03718125 1
vt 0 0.6523125000000001
vt 0.3754625 0.6523125000000001
vt 0.33828125 1
vt 0 1
vt 0 0.6523125000000001
vt 0.3754625 0.6523125000000001
vt 0.3754625 1
vt 0 1
vt 0.03718125 0.6523125000000001
vt 0.33828125 0.6523125000000001
vt 0.3754625 1
vt 0 1
vt 0.06699999999999999 0.6523125000000001
vt 0.23409999999999997 0.6523125000000001
vt 0.3011 1
vt 0.1671 1
vt 0 1
vt 0.08355 0.6523125000000001
vt 0 0.6523125000000001
vt 0.1671 0.6523125000000001
vt 0.08355 1
vt 0.06699999999999999 1
vt 0 0.6523125000000001
vt 0.3011 0.6523125000000001
vt 0.23409999999999997 1
vt 0.03718125 1
vt 0 0.6523125000000001
vt 0.3754625 0.6523125000000001
vt 0.33828125 1
vt 0 1
vt 0 0.6523125000000001
vt 0.3754625 0.6523125000000001
vt 0.3754625 1
vt 0 1
vt 0.03718125 0.6523125000000001
vt 0.33828125 0.6523125000000001
vt 0.3754625 1
vt 0 1
vt 0.06699999999999999 0.6523125000000001
vt 0.23409999999999997 0.6523125000000001
vt 0.3011 1
vt 0.1671 1
vt 0 1
vt 0.08355 0.6523125000000001
vt 0 0.6523125000000001
vt 0.1671 0.6523125000000001
vt 0.08355 1
vt 0.06699999999999999 1
vt 0 0.6523125000000001
vt 0.3011 0.6523125000000001
vt 0.23409999999999997 1
vt 0.03718125 1
vt 0 0.6523125000000001
vt 0.3754625 0.6523125000000001
vt 0.33828125 1
vt 0 1
vt 0 0.6523125000000001
vt 0.3754625 0.6523125000000001
vt 0.3754625 1
vt 0 1
vt 0.03718125 0.6523125000000001
vt 0.33828125 0.6523125000000001
vt 0.3754625 1
vt 0 1
vt 0.06699999999999999 0.6523125000000001
vt 0.23409999999999997 0.6523125000000001
vt 0.3011 1
vt 0.1671 1
vt 0 1
vt 0.08355 0.6523125000000001
vt 0 0.6523125000000001
vt 0.1671 0.6523125000000001
vt 0.08355 1
vt 0.06699999999999999 1
vt 0 0.6523125000000001
vt 0.3011 0.6523125000000001
vt 0.23409999999999997 1
vt 0.03718125 1
vt 0 0.6523125000000001
vt 0.3754625 0.6523125000000001
vt 0.33828125 1
vt 0 1
vt 0 0.6523125000000001
vt 0.3754625 0.6523125000000001
vt 0.3754625 1
vt 0 1
vt 0.03718125 0.6523125000000001
vt 0.33828125 0.6523125000000001
vt 0.3754625 1
vt 0 1
vt 0.06699999999999999 0.6523125000000001
vt 0.23409999999999997 0.6523125000000001
vt 0.3011 1
vt 0.1671 1
vt 0 1
vt 0.08355 0.6523125000000001
vt 0 0.6523125000000001
vt 0.1671 0.6523125000000001
vt 0.08355 1
vt 0.06699999999999999 1
vt 0 0.6523125000000001
vt 0.3011 0.6523125000000001
vt 0.23409999999999997 1
vt 0.03718125 1
vt 0 0.6523125000000001
vt 0.3754625 0.6523125000000001
vt 0.33828125 1
vt 0 1
vt 0 0.6523125000000001
vt 0.3754625 0.6523125000000001
vt 0.3754625 1
vt 0 1
vt 0.03718125 0.6523125000000001
vt 0.33828125 0.6523125000000001
vt 0.3754625 1
vt 0 1
vt 0.06699999999999999 0.6523125000000001
vt 0.23409999999999997 0.6523125000000001
vt 0.3011 1
vt 0.1671 1
vt 0 1
vt 0.08355 0.6523125000000001
vt 0 0.6523125000000001
vt 0.1671 0.6523125000000001
vt 0.08355 1
vt 0.06699999999999999 1
vt 0 0.6523125000000001
vt 0.3011 0.6523125000000001
vt 0.23409999999999997 1
vt 0.03718125 1
vt 0 0.6523125000000001
vt 0.3754625 0.6523125000000001
vt 0.33828125 1
vt 0 1
vt 0 0.6523125000000001
vt 0.3754625 0.6523125000000001
vt 0.3754625 1
vt 0 1
vt 0.03718125 0.6523125000000001
vt 0.33828125 0.6523125000000001
vt 0.3754625 1
vt 0 1
vt 0.06699999999999999 0.6523125000000001
vt 0.23409999999999997 0.6523125000000001
vt 0.3011 1
vt 0.1671 1
vt 0 1
vt 0.08355 0.6523125000000001
vt 0 0.6523125000000001
vt 0.1671 0.6523125000000001
vt 0.08355 1
vt 0.06699999999999999 1
vt 0 0.6523125000000001
vt 0.3011 0.6523125000000001
vt 0.23409999999999997 1
vt 0.03718125 1
vt 0 0.6523125000000001
vt 0.3754625 0.6523125000000001
vt 0.33828125 1
vt 0 1
vt 0 0.6523125000000001
vt 0.3754625 0.6523125000000001
vt 0.3754625 1
vt 0 1
vt 0.03718125 0.6523125000000001
vt 0.33828125 0.6523125000000001
vt 0.3754625 1
vt 0 1
vt 0.06699999999999999 0.6523125000000001
vt 0.23409999999999997 0.6523125000000001
vt 0.3011 1
vt 0.1671 1
vt 0 1
vt 0.08355 0.6523125000000001
vt 0 0.6523125000000001
vt 0.1671 0.6523125000000001
vt 0.08355 1
vt 0.06699999999999999 1
vt 0 0.6523125000000001
vt 0.3011 0.6523125000000001
vt 0.23409999999999997 1
vt 0.03718125 1
vt 0 0.6523125000000001
vt 0.3754625 0.6523125000000001
vt 0.33828125 1
vt 0 1
vt 0 0.6523125000000001
vt 0.3754625 0.6523125000000001
vt 0.3754625 1
vt 0 1
vt 0.03718125 0.6523125000000001
vt 0.33828125 0.6523125000000001
vt 0.3754625 1
vt 0 1
vt 0.06699999999999999 0.6523125000000001
vt 0.23409999999999997 0.6523125000000001
vt 0.3011 1
vt 0.1671 1
vt 0 1
vt 0.08355 0.6523125000000001
vt 0 0.6523125000000001
vt 0.1671 0.6523125000000001
vt 0.08355 1
vt 0.06699999999999999 1
vt 0 0.6523125000000001
vt 0.3011 0.6523125000000001
vt 0.23409999999999997 1
vt 0.03718125 1
vt 0 0.6523125000000001
vt 0.3754625 0.6523125000000001
vt 0.33828125 1
vt 0 1
vt 0 0.6523125000000001
vt 0.3754625 0.6523125000000001
vt 0.3754625 1
vt 0 1
vt 0.03718125 0.6523125000000001
vt 0.33828125 0.6523125000000001
vt 0.3754625 1
vt 0 1
vt 0.06699999999999999 0.6523125000000001
vt 0.23409999999999997 0.6523125000000001
vt 0.3011 1
vt 0.1671 1
vt 0 1
vt 0.08355 0.6523125000000001
vt 0 0.6523125000000001
vt 0.1671 0.6523125000000001
vt 0.08355 1
vt 0.06699999999999999 1
vt 0 0.6523125000000001
vt 0.3011 0.6523125000000001
vt 0.23409999999999997 1
vt 0.03718125 1
vt 0 0.6523125000000001
vt 0.3754625 0.6523125000000001
vt 0.33828125 1
vt 0 1
vt 0 0.6523125000000001
vt 0.3754625 0.6523125000000001
vt 0.3754625 1
vt 0 1
vt 0.03718125 0.6523125000000001
vt 0.33828125 0.6523125000000001
vt 0.3754625 1
vt 0 1
vt 0.06699999999999999 0.6523125000000001
vt 0.23409999999999997 0.6523125000000001
vt 0.3011 1
vt 0.1671 1
vt 0 1
vt 0.08355 0.6523125000000001
vt 0 0.6523125000000001
vt 0.1671 0.6523125000000001
vt 0.08355 1
vt 0.06699999999999999 1
vt 0 0.6523125000000001
vt 0.3011 0.6523125000000001
vt 0.23409999999999997 1
vt 0.03718125 1
vt 0 0.6523125000000001
vt 0.3754625 0.6523125000000001
vt 0.33828125 1
vt 0 1
vt 0 0.6523125000000001
vt 0.3754625 0.6523125000000001
vt 0.3754625 1
vt 0 1
vt 0.03718125 0.6523125000000001
vt 0.33828125 0.6523125000000001
vt 0.3754625 1
vt 0 1
vt 0.06699999999999999 0.6523125000000001
vt 0.23409999999999997 0.6523125000000001
vt 0.3011 1
vt 0.1671 1
vt 0 1
vt 0.08355 0.6523125000000001
vt 0 0.6523125000000001
vt 0.1671 0.6523125000000001
vt 0.08355 1
vt 0.06699999999999999 1
vt 0 0.6523125000000001
vt 0.3011 0.6523125000000001
vt 0.23409999999999997 1
vt 0.03718125 1
vt 0 0.6523125000000001
vt 0.3754625 0.6523125000000001
vt 0.33828125 1
vt 0 1
vt 0 0.6523125000000001
vt 0.3754625 0.6523125000000001
vt 0.3754625 1
vt 0 1
vt 0.03718125 0.6523125000000001
vt 0.33828125 0.6523125000000001
vt 0.3754625 1
vt 0 1
vt 0.06699999999999999 0.6523125000000001
vt 0.23409999999999997 0.6523125000000001
vt 0.3011 1
vt 0.1671 1
vt 0 1
vt 0.08355 0.6523125000000001
vn 0.05835818221585242 0.9824739210417512 0.1770291417854935
vn 0.1729831768446224 0.8334994430743623 0.5247432695361325
vn 0.2709011951793045 0.5012935951173816 0.8217769003474821
vn 0.31308022138039426 0 0.9497266843573489
vn 0.27090119517930433 -0.5012935951173815 0.821776900347482
vn 0.17298317684462253 -0.8334994430743621 0.5247432695361326
vn 0.0583581822158524 -0.9824739210417512 0.17702914178549345
vn 0.10392904636350406 0.9880051865032725 0.11421254206349787
vn 0.32256881695636325 0.8776610666229179 0.3544861216771319
vn 0.5505195071494562 0.5752504323175912 0.6049919109924895
vn 0.6730253706954284 0 0.7396193956355398
vn 0.5505195071494562 -0.5752504323175912 0.6049919109924896
vn 0.32256881695636336 -0.8776610666229179 0.35448612167713206
vn 0.10392904636350406 -0.9880051865032726 0.11421254206349787
vn 0.12583794219025302 0.9917525067707866 0.024326479794320996
vn 0.4040485339341239 0.9113966002953491 0.07810902121883864
vn 0.7478956518224217 0.6478801389377061 0.1445801492431578
vn 0.9818224033435649 0 0.1898019185695081
vn 0.7478956518224217 -0.6478801389377061 0.14458014924315776
vn 0.40404853393412404 -0.9113966002953492 0.07810902121883888
vn 0.125837942190253 -0.9917525067707866 0.02432647979432099
vn 0.11836248815383656 0.9903952165775611 -0.07146772962896564
vn 0.3752975207911777 0.8987777515265206 -0.22660609931978345
vn 0.6726017287966689 0.6186063681636854 -0.4061195337423049
vn 0.8560529697588124 0 -0.5168881048806578
vn 0.6726017287966689 -0.6186063681636855 -0.40611953374230475
vn 0.37529752079117784 -0.8987777515265204 -0.2266060993197835
vn 0.11836248815383656 -0.9903952165775611 -0.07146772962896564
vn 0.08349884891673971 0.9851451515244469 -0.15005656485956914
vn 0.2529239452690808 0.8540668259678375 -0.45453199523328025
vn 0.4112977244770466 0.5333815655045226 -0.7391469998721147
vn 0.48623950622895673 0 -0.8738255790386436
vn 0.4112977244770467 -0.5333815655045226 -0.7391469998721149
vn 0.2529239452690808 -0.8540668259678373 -0.4545319952332804
vn 0.08349884891673971 -0.9851451515244469 -0.1500565648595691
vn 0.02999481052711422 0.9805925743289947 -0.19374858583297563
vn 0.08761401967629776 0.8197817635574053 -0.565934310406139
vn 0.13406662647705475 0.4817537654167763 -0.865990444041861
vn 0.15299054225012276 0 -0.9882276529130388
vn 0.13406662647705478 -0.4817537654167762 -0.865990444041861
vn 0.08761401967629781 -0.8197817635574051 -0.5659343104061392
vn 0.029994810527114245 -0.9805925743289947 -0.19374858583297558
vn -0.0299948105271141 0.9805925743289947 -0.1937485858329756
vn -0.08761401967629748 0.8197817635574052 -0.565934310406139
vn -0.1340666264770546 0.48175376541677634 -0.8659904440418611
vn -0.15299054225012254 0 -0.9882276529130388
vn -0.13406662647705445 -0.4817537654167763 -0.8659904440418611
vn -0.08761401967629756 -0.819781763557405 -0.5659343104061393
vn -0.029994810527114155 -0.9805925743289947 -0.19374858583297555
vn -0.08349884891673974 0.9851451515244469 -0.15005656485956914
vn -0.25292394526908063 0.8540668259678373 -0.4545319952332804
vn -0.41129772447704654 0.5333815655045225 -0.7391469998721151
vn -0.48623950622895634 0 -0.8738255790386436
vn -0.4112977244770466 -0.5333815655045225 -0.739146999872115
vn -0.25292394526908063 -0.8540668259678375 -0.45453199523328053
vn -0.08349884891673967 -0.9851451515244469 -0.15005656485956914
vn -0.11836248815383656 0.9903952165775611 -0.07146772962896578
vn -0.37529752079117745 0.8987777515265206 -0.22660609931978382
vn -0.6726017287966687 0.6186063681636853 -0.40611953374230564
vn -0.8560529697588118 0 -0.5168881048806586
vn -0.6726017287966687 -0.6186063681636853 -0.40611953374230547
vn -0.37529752079117773 -0.8987777515265206 -0.226606099319784
vn -0.11836248815383653 -0.9903952165775611 -0.07146772962896573
vn -0.12583794219025304 0.9917525067707866 0.024326479794320968
vn -0.404048533934124 0.9113966002953492 0.07810902121883867
vn -0.7478956518224217 0.6478801389377061 0.14458014924315757
vn -0.9818224033435651 0 0.18980191856950784
vn -0.7478956518224218 -0.647880138937706 0.14458014924315765
vn -0.40404853393412415 -0.911396600295349 0.0781090212188388
vn -0.12583794219025302 -0.9917525067707866 0.024326479794320954
vn -0.10392904636350406 0.9880051865032725 0.11421254206349786
vn -0.32256881695636325 0.8776610666229179 0.3544861216771319
vn -0.5505195071494562 0.5752504323175913 0.6049919109924895
vn -0.6730253706954286 0 0.7396193956355397
vn -0.5505195071494562 -0.5752504323175912 0.6049919109924896
vn -0.32256881695636347 -0.8776610666229178 0.35448612167713195
vn -0.10392904636350406 -0.9880051865032726 0.11421254206349782
vn -0.05835818221585248 0.9824739210417512 0.17702914178549345
vn -0.17298317684462258 0.8334994430743624 0.5247432695361322
vn -0.27090119517930467 0.5012935951173816 0.821776900347482
vn -0.3130802213803946 0 0.9497266843573487
vn -0.27090119517930467 -0.5012935951173816 0.821776900347482
vn -0.1729831768446226 -0.8334994430743621 0.5247432695361326
vn -0.05835818221585243 -0.9824739210417512 0.17702914178549345
vn 0 0.9799162606511178 0.199409433356426
vn 0 0.8149949621047701 0.579468042038424
vn 0 0.47524333633756577 0.8798544034479453
vn 0 0 1
vn 0 -0.4752433363375656 0.8798544034479452
vn 0 -0.8149949621047698 0.5794680420384241
vn 0 -0.9799162606511178 0.19940943335642594
usemtl none
f 3/1/1 9/2/1 2/3/1
f 3/4/2 4/5/2 10/6/2 9/7/2
f 4/8/3 5/9/3 11/10/3 10/11/3
f 5/12/4 6/13/4 12/14/4 11/15/4
f 6/16/5 7/17/5 13/18/5 12/19/5
f 7/20/6 8/21/6 14/22/6 13/23/6
f 14/24/7 8/25/7 1/26/7
f 9/27/8 15/28/8 2/29/8
f 9/30/9 10/31/9 16/32/9 15/33/9
f 10/34/10 11/35/10 17/36/10 16/37/10
f 11/38/11 12/39/11 18/40/11 17/41/11
f 12/42/12 13/43/12 19/44/12 18/45/12
f 13/46/13 14/47/13 20/48/13 19/49/13
f 20/50/14 14/51/14 1/52/14
f 15/53/15 21/54/15 2/55/15
f 15/56/16 16/57/16 22/58/16 21/59/16
f 16/60/17 17/61/17 23/62/17 22/63/17
f 17/64/18 18/65/18 24/66/18 23/67/18
f 18/68/19 19/69/19 25/70/19 24/71/19
f 19/72/20 20/73/20 26/74/20 25/75/20
f 26/76/21 20/77/21 1/78/21
f 21/79/22 27/80/22 2/81/22
f 21/82/23 22/83/23 28/84/23 27/85/23
f 22/86/24 23/87/24 29/88/24 28/89/24
f 23/90/25 24/91/25 30/92/25 29/93/25
f 24/94/26 25/95/26 31/96/26 30/97/26
f 25/98/27 26/99/27 32/100/27 31/101/27
f 32/102/28 26/103/28 1/104/28
f 27/105/29 33/106/29 2/107/29
f 27/108/30 28/109/30 34/110/30 33/111/30
f 28/112/31 29/113/31 35/114/31 34/115/31
f 29/116/32 30/117/32 36/118/32 35/119/32
f 30/120/33 31/121/33 37/122/33 36/123/33
f 31/124/34 32/125/34 38/126/34 37/127/34
f 38/128/35 32/129/35 1/130/35
f 33/131/36 39/132/36 2/133/36
f 33/134/37 34/135/37 40/136/37 39/137/37
f 34/138/38 35/139/38 41/140/38 40/141/38
f 35/142/39 36/143/39 42/144/39 41/145/39
f 36/146/40 37/147/40 43/148/40 42/149/40
f 37/150/41 38/151/41 44/152/41 43/153/41
f 44/154/42 38/155/42 1/156/42
f 39/157/43 45/158/43 2/159/43
f 39/160/44 40/161/44 46/162/44 45/163/44
f 40/164/45 41/165/45 47/166/45 46/167/45
f 41/168/46 42/169/46 48/170/46 47/171/46
f 42/172/47 43/173/47 49/174/47 48/175/47
f 43/176/48 44/177/48 50/178/48 49/179/48
f 50/180/49 44/181/49 1/182/49
f 45/183/50 51/184/50 2/185/50
f 45/186/51 46/187/51 52/188/51 51/189/51
f 46/190/52 47/191/52 53/192/52 52/193/52
f 47/194/53 48/195/53 54/196/53 53/197/53
f 48/198/54 49/199/54 55/200/54 54/201/54
f 49/202/55 50/203/55 56/204/55 55/205/55
f 56/206/56 50/207/56 1/208/56
f 51/209/57 57/210/57 2/211/57
f 51/212/58 52/213/58 58/214/58 57/215/58
f 52/216/59 53/217/59 59/218/59 58/219/59
f 53/220/60 54/221/60 60/222/60 59/223/60
f 54/224/61 55/225/61 61/226/61 60/227/61
f 55/228/62 56/229/62 62/230/62 61/231/62
f 62/232/63 56/233/63 1/234/63
f 57/235/64 63/236/64 2/237/64
f 57/238/65 58/239/65 64/240/65 63/241/65
f 58/242/66 59/243/66 65/244/66 64/245/66
f 59/246/67 60/247/67 66/248/67 65/249/67
f 60/250/68 61/251/68 67/252/68 66/253/68
f 61/254/69 62/255/69 68/256/69 67/257/69
f 68/258/70 62/259/70 1/260/70
f 63/261/71 69/262/71 2/263/71
f 63/264/72 64/265/72 70/266/72 69/267/72
f 64/268/73 65/269/73 71/270/73 70/271/73
f 65/272/74 66/273/74 72/274/74 71/275/74
f 66/276/75 67/277/75 73/278/75 72/279/75
f 67/280/76 68/281/76 74/282/76 73/283/76
f 74/284/77 68/285/77 1/286/77
f 69/287/78 75/288/78 2/289/78
f 69/290/79 70/291/79 76/292/79 75/293/79
f 70/294/80 71/295/80 77/296/80 76/297/80
f 71/298/81 72/299/81 78/300/81 77/301/81
f 72/302/82 73/303/82 79/304/82 78/305/82
f 73/306/83 74/307/83 80/308/83 79/309/83
f 80/310/84 74/311/84 1/312/84
f 75/313/85 3/314/85 2/315/85
f 75/316/86 76/317/86 4/318/86 3/319/86
f 76/320/87 77/321/87 5/322/87 4/323/87
f 77/324/88 78/325/88 6/326/88 5/327/88
f 78/328/89 79/329/89 7/330/89 6/331/89
f 79/332/90 80/333/90 8/334/90 7/335/90
f 8/336/91 80/337/91 1/338/91